<svg width="50" height="230" viewBox="0 0 50 230" fill="none" xmlns="http://www.w3.org/2000/svg">
	<circle cx="47.5" cy="2.50049" r="2.5" fill="#D02A2B"/>
	<circle cx="47.5" cy="17.5005" r="2.5" fill="#D02A2B"/>
	<circle cx="32.5" cy="2.50049" r="2.5" fill="#D02A2B"/>
	<circle cx="17.5" cy="2.50024" r="2.5" fill="#D02A2B"/>
	<circle cx="2.5" cy="2.5" r="2.5" fill="#D02A2B"/>
	<circle cx="32.5" cy="17.5005" r="2.5" fill="#D02A2B"/>
	<circle cx="17.5" cy="17.5002" r="2.5" fill="#D02A2B"/>
	<circle cx="2.5" cy="17.5" r="2.5" fill="#D02A2B"/>
	<circle cx="47.5" cy="32.5005" r="2.5" fill="#D02A2B"/>
	<circle cx="47.5" cy="47.5005" r="2.5" fill="#D02A2B"/>
	<circle cx="47.5" cy="62.5005" r="2.5" fill="#D02A2B"/>
	<circle cx="32.5" cy="32.5005" r="2.5" fill="#D02A2B"/>
	<circle cx="17.5" cy="32.5002" r="2.5" fill="#D02A2B"/>
	<circle cx="2.5" cy="32.5" r="2.5" fill="#D02A2B"/>
	<circle cx="32.5" cy="47.5005" r="2.5" fill="#D02A2B"/>
	<circle cx="17.5" cy="47.5002" r="2.5" fill="#D02A2B"/>
	<circle cx="2.5" cy="47.5" r="2.5" fill="#D02A2B"/>
	<circle cx="32.5" cy="62.5005" r="2.5" fill="#D02A2B"/>
	<circle cx="17.5" cy="62.5002" r="2.5" fill="#D02A2B"/>
	<circle cx="2.5" cy="62.5" r="2.5" fill="#D02A2B"/>
	<circle cx="47.5" cy="77.5005" r="2.5" fill="#D02A2B"/>
	<circle cx="47.5" cy="92.5005" r="2.5" fill="#D02A2B"/>
	<circle cx="47.5" cy="107.5" r="2.5" fill="#D02A2B"/>
	<circle cx="32.5" cy="77.5005" r="2.5" fill="#D02A2B"/>
	<circle cx="17.5" cy="77.5002" r="2.5" fill="#D02A2B"/>
	<circle cx="2.5" cy="77.5" r="2.5" fill="#D02A2B"/>
	<circle cx="32.5" cy="92.5005" r="2.5" fill="#D02A2B"/>
	<circle cx="17.5" cy="92.5002" r="2.5" fill="#D02A2B"/>
	<circle cx="2.5" cy="92.5" r="2.5" fill="#D02A2B"/>
	<circle cx="32.5" cy="107.5" r="2.5" fill="#D02A2B"/>
	<circle cx="17.5" cy="107.5" r="2.5" fill="#D02A2B"/>
	<circle cx="2.5" cy="107.5" r="2.5" fill="#D02A2B"/>
	<circle cx="47.5" cy="122.5" r="2.5" fill="#D02A2B"/>
	<circle cx="47.5" cy="137.5" r="2.5" fill="#D02A2B"/>
	<circle cx="47.5" cy="152.5" r="2.5" fill="#D02A2B"/>
	<circle cx="32.5" cy="122.5" r="2.5" fill="#D02A2B"/>
	<circle cx="17.5" cy="122.5" r="2.5" fill="#D02A2B"/>
	<circle cx="2.5" cy="122.5" r="2.5" fill="#D02A2B"/>
	<circle cx="32.5" cy="137.5" r="2.5" fill="#D02A2B"/>
	<circle cx="17.5" cy="137.5" r="2.5" fill="#D02A2B"/>
	<circle cx="2.5" cy="137.5" r="2.5" fill="#D02A2B"/>
	<circle cx="32.5" cy="152.5" r="2.5" fill="#D02A2B"/>
	<circle cx="17.5" cy="152.5" r="2.5" fill="#D02A2B"/>
	<circle cx="2.5" cy="152.5" r="2.5" fill="#D02A2B"/>
	<circle cx="47.5" cy="167.5" r="2.5" fill="#D02A2B"/>
	<circle cx="47.5" cy="182.5" r="2.5" fill="#D02A2B"/>
	<circle cx="47.5" cy="197.5" r="2.5" fill="#D02A2B"/>
	<circle cx="32.5" cy="167.5" r="2.5" fill="#D02A2B"/>
	<circle cx="17.5" cy="167.5" r="2.5" fill="#D02A2B"/>
	<circle cx="2.5" cy="167.5" r="2.5" fill="#D02A2B"/>
	<circle cx="32.5" cy="182.5" r="2.5" fill="#D02A2B"/>
	<circle cx="17.5" cy="182.5" r="2.5" fill="#D02A2B"/>
	<circle cx="2.5" cy="182.5" r="2.5" fill="#D02A2B"/>
	<circle cx="32.5" cy="197.5" r="2.5" fill="#D02A2B"/>
	<circle cx="17.5" cy="197.5" r="2.5" fill="#D02A2B"/>
	<circle cx="2.5" cy="197.5" r="2.5" fill="#D02A2B"/>
	<circle cx="47.5" cy="212.5" r="2.5" fill="#D02A2B"/>
	<circle cx="47.5" cy="227.5" r="2.5" fill="#D02A2B"/>
	<circle cx="32.5" cy="212.5" r="2.5" fill="#D02A2B"/>
	<circle cx="17.5" cy="212.5" r="2.5" fill="#D02A2B"/>
	<circle cx="2.5" cy="212.5" r="2.5" fill="#D02A2B"/>
	<circle cx="32.5" cy="227.5" r="2.5" fill="#D02A2B"/>
	<circle cx="17.5" cy="227.5" r="2.5" fill="#D02A2B"/>
	<circle cx="2.5" cy="227.5" r="2.5" fill="#D02A2B"/>
</svg>
