<svg width="207" height="101" viewBox="0 0 207 101" fill="none" xmlns="http://www.w3.org/2000/svg">
	<ellipse cx="2.5" cy="2.49292" rx="2.5" ry="2.49292" fill="#D02A2B"/>
	<ellipse cx="14.5" cy="2.49292" rx="2.5" ry="2.49292" fill="#D02A2B"/>
	<ellipse cx="26.5" cy="2.49292" rx="2.5" ry="2.49292" fill="#D02A2B"/>
	<ellipse cx="2.5" cy="15.4573" rx="2.5" ry="2.49292" fill="#D02A2B"/>
	<ellipse cx="2.5" cy="29.4189" rx="2.5" ry="2.49316" fill="#D02A2B"/>
	<ellipse cx="2.5" cy="43.3806" rx="2.5" ry="2.49341" fill="#D02A2B"/>
	<ellipse cx="2.5" cy="57.3423" rx="2.5" ry="2.49316" fill="#D02A2B"/>
	<ellipse cx="2.5" cy="71.3037" rx="2.5" ry="2.49316" fill="#D02A2B"/>
	<ellipse cx="2.5" cy="84.2681" rx="2.5" ry="2.49316" fill="#D02A2B"/>
	<ellipse cx="2.5" cy="98.2297" rx="2.5" ry="2.49292" fill="#D02A2B"/>
	<ellipse cx="14.5" cy="15.4573" rx="2.5" ry="2.49292" fill="#D02A2B"/>
	<ellipse cx="14.5" cy="29.4189" rx="2.5" ry="2.49316" fill="#D02A2B"/>
	<ellipse cx="14.5" cy="43.3806" rx="2.5" ry="2.49341" fill="#D02A2B"/>
	<ellipse cx="14.5" cy="57.3423" rx="2.5" ry="2.49316" fill="#D02A2B"/>
	<ellipse cx="14.5" cy="71.3037" rx="2.5" ry="2.49316" fill="#D02A2B"/>
	<ellipse cx="14.5" cy="84.2681" rx="2.5" ry="2.49316" fill="#D02A2B"/>
	<ellipse cx="14.5" cy="98.2297" rx="2.5" ry="2.49292" fill="#D02A2B"/>
	<ellipse cx="26.5" cy="15.4573" rx="2.5" ry="2.49292" fill="#D02A2B"/>
	<ellipse cx="26.5" cy="29.4189" rx="2.5" ry="2.49316" fill="#D02A2B"/>
	<ellipse cx="26.5" cy="43.3806" rx="2.5" ry="2.49341" fill="#D02A2B"/>
	<ellipse cx="26.5" cy="57.3423" rx="2.5" ry="2.49316" fill="#D02A2B"/>
	<ellipse cx="26.5" cy="71.3037" rx="2.5" ry="2.49316" fill="#D02A2B"/>
	<ellipse cx="26.5" cy="84.2681" rx="2.5" ry="2.49316" fill="#D02A2B"/>
	<ellipse cx="26.5" cy="98.2297" rx="2.5" ry="2.49292" fill="#D02A2B"/>
	<ellipse cx="39.5" cy="2.49292" rx="2.5" ry="2.49292" fill="#D02A2B"/>
	<ellipse cx="51.5" cy="2.49292" rx="2.5" ry="2.49292" fill="#D02A2B"/>
	<ellipse cx="63.5" cy="2.49292" rx="2.5" ry="2.49292" fill="#D02A2B"/>
	<ellipse cx="39.5" cy="15.4573" rx="2.5" ry="2.49292" fill="#D02A2B"/>
	<ellipse cx="39.5" cy="29.4189" rx="2.5" ry="2.49316" fill="#D02A2B"/>
	<ellipse cx="39.5" cy="43.3806" rx="2.5" ry="2.49341" fill="#D02A2B"/>
	<ellipse cx="39.5" cy="57.3423" rx="2.5" ry="2.49316" fill="#D02A2B"/>
	<ellipse cx="39.5" cy="71.3037" rx="2.5" ry="2.49316" fill="#D02A2B"/>
	<ellipse cx="39.5" cy="84.2681" rx="2.5" ry="2.49316" fill="#D02A2B"/>
	<ellipse cx="39.5" cy="98.2297" rx="2.5" ry="2.49292" fill="#D02A2B"/>
	<ellipse cx="51.5" cy="15.4573" rx="2.5" ry="2.49292" fill="#D02A2B"/>
	<ellipse cx="51.5" cy="29.4189" rx="2.5" ry="2.49316" fill="#D02A2B"/>
	<ellipse cx="51.5" cy="43.3806" rx="2.5" ry="2.49341" fill="#D02A2B"/>
	<ellipse cx="51.5" cy="57.3423" rx="2.5" ry="2.49316" fill="#D02A2B"/>
	<ellipse cx="51.5" cy="71.3037" rx="2.5" ry="2.49316" fill="#D02A2B"/>
	<ellipse cx="51.5" cy="84.2681" rx="2.5" ry="2.49316" fill="#D02A2B"/>
	<ellipse cx="51.5" cy="98.2297" rx="2.5" ry="2.49292" fill="#D02A2B"/>
	<ellipse cx="63.5" cy="15.4573" rx="2.5" ry="2.49292" fill="#D02A2B"/>
	<ellipse cx="63.5" cy="29.4189" rx="2.5" ry="2.49316" fill="#D02A2B"/>
	<ellipse cx="63.5" cy="43.3806" rx="2.5" ry="2.49341" fill="#D02A2B"/>
	<ellipse cx="63.5" cy="57.3423" rx="2.5" ry="2.49316" fill="#D02A2B"/>
	<ellipse cx="63.5" cy="71.3037" rx="2.5" ry="2.49316" fill="#D02A2B"/>
	<ellipse cx="63.5" cy="84.2681" rx="2.5" ry="2.49316" fill="#D02A2B"/>
	<ellipse cx="63.5" cy="98.2297" rx="2.5" ry="2.49292" fill="#D02A2B"/>
	<ellipse cx="76.5" cy="2.49292" rx="2.5" ry="2.49292" fill="#D02A2B"/>
	<ellipse cx="88.5" cy="2.49292" rx="2.5" ry="2.49292" fill="#D02A2B"/>
	<ellipse cx="100.5" cy="2.49292" rx="2.5" ry="2.49292" fill="#D02A2B"/>
	<ellipse cx="76.5" cy="15.4573" rx="2.5" ry="2.49292" fill="#D02A2B"/>
	<ellipse cx="76.5" cy="29.4189" rx="2.5" ry="2.49316" fill="#D02A2B"/>
	<ellipse cx="76.5" cy="43.3806" rx="2.5" ry="2.49341" fill="#D02A2B"/>
	<ellipse cx="76.5" cy="57.3423" rx="2.5" ry="2.49316" fill="#D02A2B"/>
	<ellipse cx="76.5" cy="71.3037" rx="2.5" ry="2.49316" fill="#D02A2B"/>
	<ellipse cx="76.5" cy="84.2681" rx="2.5" ry="2.49316" fill="#D02A2B"/>
	<ellipse cx="76.5" cy="98.2297" rx="2.5" ry="2.49292" fill="#D02A2B"/>
	<ellipse cx="88.5" cy="15.4573" rx="2.5" ry="2.49292" fill="#D02A2B"/>
	<ellipse cx="88.5" cy="29.4189" rx="2.5" ry="2.49316" fill="#D02A2B"/>
	<ellipse cx="88.5" cy="43.3806" rx="2.5" ry="2.49341" fill="#D02A2B"/>
	<ellipse cx="88.5" cy="57.3423" rx="2.5" ry="2.49316" fill="#D02A2B"/>
	<ellipse cx="88.5" cy="71.3037" rx="2.5" ry="2.49316" fill="#D02A2B"/>
	<ellipse cx="88.5" cy="84.2681" rx="2.5" ry="2.49316" fill="#D02A2B"/>
	<ellipse cx="88.5" cy="98.2297" rx="2.5" ry="2.49292" fill="#D02A2B"/>
	<ellipse cx="100.5" cy="15.4573" rx="2.5" ry="2.49292" fill="#D02A2B"/>
	<ellipse cx="100.5" cy="29.4189" rx="2.5" ry="2.49316" fill="#D02A2B"/>
	<ellipse cx="100.5" cy="43.3806" rx="2.5" ry="2.49341" fill="#D02A2B"/>
	<ellipse cx="100.5" cy="57.3423" rx="2.5" ry="2.49316" fill="#D02A2B"/>
	<ellipse cx="100.5" cy="71.3037" rx="2.5" ry="2.49316" fill="#D02A2B"/>
	<ellipse cx="100.5" cy="84.2681" rx="2.5" ry="2.49316" fill="#D02A2B"/>
	<ellipse cx="100.5" cy="98.2297" rx="2.5" ry="2.49292" fill="#D02A2B"/>
	<ellipse cx="113.5" cy="2.49292" rx="2.5" ry="2.49292" fill="#D02A2B"/>
	<ellipse cx="125.5" cy="2.49292" rx="2.5" ry="2.49292" fill="#D02A2B"/>
	<ellipse cx="137.5" cy="2.49292" rx="2.5" ry="2.49292" fill="#D02A2B"/>
	<ellipse cx="113.5" cy="15.4573" rx="2.5" ry="2.49292" fill="#D02A2B"/>
	<ellipse cx="113.5" cy="29.4189" rx="2.5" ry="2.49316" fill="#D02A2B"/>
	<ellipse cx="113.5" cy="43.3806" rx="2.5" ry="2.49341" fill="#D02A2B"/>
	<ellipse cx="113.5" cy="57.3423" rx="2.5" ry="2.49316" fill="#D02A2B"/>
	<ellipse cx="113.5" cy="71.3037" rx="2.5" ry="2.49316" fill="#D02A2B"/>
	<ellipse cx="113.5" cy="84.2681" rx="2.5" ry="2.49316" fill="#D02A2B"/>
	<ellipse cx="113.5" cy="98.2297" rx="2.5" ry="2.49292" fill="#D02A2B"/>
	<ellipse cx="125.5" cy="15.4573" rx="2.5" ry="2.49292" fill="#D02A2B"/>
	<ellipse cx="125.5" cy="29.4189" rx="2.5" ry="2.49316" fill="#D02A2B"/>
	<ellipse cx="125.5" cy="43.3806" rx="2.5" ry="2.49341" fill="#D02A2B"/>
	<ellipse cx="125.5" cy="57.3423" rx="2.5" ry="2.49316" fill="#D02A2B"/>
	<ellipse cx="125.5" cy="71.3037" rx="2.5" ry="2.49316" fill="#D02A2B"/>
	<ellipse cx="125.5" cy="84.2681" rx="2.5" ry="2.49316" fill="#D02A2B"/>
	<ellipse cx="125.5" cy="98.2297" rx="2.5" ry="2.49292" fill="#D02A2B"/>
	<ellipse cx="137.5" cy="15.4573" rx="2.5" ry="2.49292" fill="#D02A2B"/>
	<ellipse cx="137.5" cy="29.4189" rx="2.5" ry="2.49316" fill="#D02A2B"/>
	<ellipse cx="137.5" cy="43.3806" rx="2.5" ry="2.49341" fill="#D02A2B"/>
	<ellipse cx="137.5" cy="57.3423" rx="2.5" ry="2.49316" fill="#D02A2B"/>
	<ellipse cx="137.5" cy="71.3037" rx="2.5" ry="2.49316" fill="#D02A2B"/>
	<ellipse cx="137.5" cy="84.2681" rx="2.5" ry="2.49316" fill="#D02A2B"/>
	<ellipse cx="137.5" cy="98.2297" rx="2.5" ry="2.49292" fill="#D02A2B"/>
	<ellipse cx="150.5" cy="2.49292" rx="2.5" ry="2.49292" fill="#D02A2B"/>
	<ellipse cx="162.5" cy="2.49292" rx="2.5" ry="2.49292" fill="#D02A2B"/>
	<ellipse cx="174.5" cy="2.49292" rx="2.5" ry="2.49292" fill="#D02A2B"/>
	<ellipse cx="150.5" cy="15.4573" rx="2.5" ry="2.49292" fill="#D02A2B"/>
	<ellipse cx="150.5" cy="29.4189" rx="2.5" ry="2.49316" fill="#D02A2B"/>
	<ellipse cx="150.5" cy="43.3806" rx="2.5" ry="2.49341" fill="#D02A2B"/>
	<ellipse cx="150.5" cy="57.3423" rx="2.5" ry="2.49316" fill="#D02A2B"/>
	<ellipse cx="150.5" cy="71.3037" rx="2.5" ry="2.49316" fill="#D02A2B"/>
	<ellipse cx="150.5" cy="84.2681" rx="2.5" ry="2.49316" fill="#D02A2B"/>
	<ellipse cx="150.5" cy="98.2297" rx="2.5" ry="2.49292" fill="#D02A2B"/>
	<ellipse cx="162.5" cy="15.4573" rx="2.5" ry="2.49292" fill="#D02A2B"/>
	<ellipse cx="162.5" cy="29.4189" rx="2.5" ry="2.49316" fill="#D02A2B"/>
	<ellipse cx="162.5" cy="43.3806" rx="2.5" ry="2.49341" fill="#D02A2B"/>
	<ellipse cx="162.5" cy="57.3423" rx="2.5" ry="2.49316" fill="#D02A2B"/>
	<ellipse cx="162.5" cy="71.3037" rx="2.5" ry="2.49316" fill="#D02A2B"/>
	<ellipse cx="162.5" cy="84.2681" rx="2.5" ry="2.49316" fill="#D02A2B"/>
	<ellipse cx="162.5" cy="98.2297" rx="2.5" ry="2.49292" fill="#D02A2B"/>
	<ellipse cx="174.5" cy="15.4573" rx="2.5" ry="2.49292" fill="#D02A2B"/>
	<ellipse cx="174.5" cy="29.4189" rx="2.5" ry="2.49316" fill="#D02A2B"/>
	<ellipse cx="174.5" cy="43.3806" rx="2.5" ry="2.49341" fill="#D02A2B"/>
	<ellipse cx="174.5" cy="57.3423" rx="2.5" ry="2.49316" fill="#D02A2B"/>
	<ellipse cx="174.5" cy="71.3037" rx="2.5" ry="2.49316" fill="#D02A2B"/>
	<ellipse cx="174.5" cy="84.2681" rx="2.5" ry="2.49316" fill="#D02A2B"/>
	<ellipse cx="174.5" cy="98.2297" rx="2.5" ry="2.49292" fill="#D02A2B"/>
	<ellipse cx="187.5" cy="2.49292" rx="2.5" ry="2.49292" fill="#D02A2B"/>
	<ellipse cx="199.5" cy="2.49292" rx="2.5" ry="2.49292" fill="#D02A2B"/>
	<ellipse cx="187.5" cy="15.4573" rx="2.5" ry="2.49292" fill="#D02A2B"/>
	<ellipse cx="187.5" cy="29.4189" rx="2.5" ry="2.49316" fill="#D02A2B"/>
	<ellipse cx="187.5" cy="43.3806" rx="2.5" ry="2.49341" fill="#D02A2B"/>
	<ellipse cx="187.5" cy="57.3423" rx="2.5" ry="2.49316" fill="#D02A2B"/>
	<ellipse cx="187.5" cy="71.3037" rx="2.5" ry="2.49316" fill="#D02A2B"/>
	<ellipse cx="187.5" cy="84.2681" rx="2.5" ry="2.49316" fill="#D02A2B"/>
	<ellipse cx="187.5" cy="98.2297" rx="2.5" ry="2.49292" fill="#D02A2B"/>
	<ellipse cx="199.5" cy="15.4573" rx="2.5" ry="2.49292" fill="#D02A2B"/>
	<ellipse cx="199.5" cy="29.4189" rx="2.5" ry="2.49316" fill="#D02A2B"/>
	<ellipse cx="199.5" cy="43.3806" rx="2.5" ry="2.49341" fill="#D02A2B"/>
	<ellipse cx="199.5" cy="57.3423" rx="2.5" ry="2.49316" fill="#D02A2B"/>
	<ellipse cx="199.5" cy="71.3037" rx="2.5" ry="2.49316" fill="#D02A2B"/>
	<ellipse cx="199.5" cy="84.2681" rx="2.5" ry="2.49316" fill="#D02A2B"/>
	<ellipse cx="199.5" cy="98.2297" rx="2.5" ry="2.49292" fill="#D02A2B"/>
</svg>
