<svg width="257" height="159" viewBox="0 0 257 159" fill="none" xmlns="http://www.w3.org/2000/svg">
	<circle cx="254.5" cy="156.5" r="2.5" transform="rotate(90 254.5 156.5)" fill="#D02A2B"/>
	<circle cx="240.5" cy="156.5" r="2.5" transform="rotate(90 240.5 156.5)" fill="#D02A2B"/>
	<circle cx="226.5" cy="156.5" r="2.5" transform="rotate(90 226.5 156.5)" fill="#D02A2B"/>
	<circle cx="212.5" cy="156.5" r="2.5" transform="rotate(90 212.5 156.5)" fill="#D02A2B"/>
	<circle cx="198.5" cy="156.5" r="2.5" transform="rotate(90 198.5 156.5)" fill="#D02A2B"/>
	<circle cx="184.5" cy="156.5" r="2.5" transform="rotate(90 184.5 156.5)" fill="#D02A2B"/>
	<circle cx="170.5" cy="156.5" r="2.5" transform="rotate(90 170.5 156.5)" fill="#D02A2B"/>
	<circle cx="156.5" cy="156.5" r="2.5" transform="rotate(90 156.5 156.5)" fill="#D02A2B"/>
	<circle cx="142.5" cy="156.5" r="2.5" transform="rotate(90 142.5 156.5)" fill="#D02A2B"/>
	<circle cx="128.5" cy="156.5" r="2.5" transform="rotate(90 128.5 156.5)" fill="#D02A2B"/>
	<circle cx="114.5" cy="156.5" r="2.5" transform="rotate(90 114.5 156.5)" fill="#D02A2B"/>
	<circle cx="100.5" cy="156.5" r="2.5" transform="rotate(90 100.5 156.5)" fill="#D02A2B"/>
	<circle cx="86.5" cy="156.5" r="2.5" transform="rotate(90 86.5 156.5)" fill="#D02A2B"/>
	<circle cx="72.5" cy="156.5" r="2.5" transform="rotate(90 72.5 156.5)" fill="#D02A2B"/>
	<circle cx="58.5" cy="156.5" r="2.5" transform="rotate(90 58.5 156.5)" fill="#D02A2B"/>
	<circle cx="44.5" cy="156.5" r="2.5" transform="rotate(90 44.5 156.5)" fill="#D02A2B"/>
	<circle cx="30.5" cy="156.5" r="2.5" transform="rotate(90 30.5 156.5)" fill="#D02A2B"/>
	<circle cx="16.5" cy="156.5" r="2.5" transform="rotate(90 16.5 156.5)" fill="#D02A2B"/>
	<circle cx="2.5" cy="156.5" r="2.5" transform="rotate(90 2.5 156.5)" fill="#D02A2B"/>
	<circle cx="254.5" cy="142.5" r="2.5" transform="rotate(90 254.5 142.5)" fill="#D02A2B"/>
	<circle cx="240.5" cy="142.5" r="2.5" transform="rotate(90 240.5 142.5)" fill="#D02A2B"/>
	<circle cx="226.5" cy="142.5" r="2.5" transform="rotate(90 226.5 142.5)" fill="#D02A2B"/>
	<circle cx="212.5" cy="142.5" r="2.5" transform="rotate(90 212.5 142.5)" fill="#D02A2B"/>
	<circle cx="198.5" cy="142.5" r="2.5" transform="rotate(90 198.5 142.5)" fill="#D02A2B"/>
	<circle cx="184.5" cy="142.5" r="2.5" transform="rotate(90 184.5 142.5)" fill="#D02A2B"/>
	<circle cx="170.5" cy="142.5" r="2.5" transform="rotate(90 170.5 142.5)" fill="#D02A2B"/>
	<circle cx="156.5" cy="142.5" r="2.5" transform="rotate(90 156.5 142.5)" fill="#D02A2B"/>
	<circle cx="142.5" cy="142.5" r="2.5" transform="rotate(90 142.5 142.5)" fill="#D02A2B"/>
	<circle cx="128.5" cy="142.5" r="2.5" transform="rotate(90 128.5 142.5)" fill="#D02A2B"/>
	<circle cx="114.5" cy="142.5" r="2.5" transform="rotate(90 114.5 142.5)" fill="#D02A2B"/>
	<circle cx="100.5" cy="142.5" r="2.5" transform="rotate(90 100.5 142.5)" fill="#D02A2B"/>
	<circle cx="86.5" cy="142.5" r="2.5" transform="rotate(90 86.5 142.5)" fill="#D02A2B"/>
	<circle cx="72.5" cy="142.5" r="2.5" transform="rotate(90 72.5 142.5)" fill="#D02A2B"/>
	<circle cx="58.5" cy="142.5" r="2.5" transform="rotate(90 58.5 142.5)" fill="#D02A2B"/>
	<circle cx="44.5" cy="142.5" r="2.5" transform="rotate(90 44.5 142.5)" fill="#D02A2B"/>
	<circle cx="30.5" cy="142.5" r="2.5" transform="rotate(90 30.5 142.5)" fill="#D02A2B"/>
	<circle cx="16.5" cy="142.5" r="2.5" transform="rotate(90 16.5 142.5)" fill="#D02A2B"/>
	<circle cx="2.5" cy="142.5" r="2.5" transform="rotate(90 2.5 142.5)" fill="#D02A2B"/>
	<circle cx="254.5" cy="128.5" r="2.5" transform="rotate(90 254.5 128.5)" fill="#D02A2B"/>
	<circle cx="240.5" cy="128.5" r="2.5" transform="rotate(90 240.5 128.5)" fill="#D02A2B"/>
	<circle cx="226.5" cy="128.5" r="2.5" transform="rotate(90 226.5 128.5)" fill="#D02A2B"/>
	<circle cx="212.5" cy="128.5" r="2.5" transform="rotate(90 212.5 128.5)" fill="#D02A2B"/>
	<circle cx="198.5" cy="128.5" r="2.5" transform="rotate(90 198.5 128.5)" fill="#D02A2B"/>
	<circle cx="184.5" cy="128.5" r="2.5" transform="rotate(90 184.5 128.5)" fill="#D02A2B"/>
	<circle cx="170.5" cy="128.5" r="2.5" transform="rotate(90 170.5 128.5)" fill="#D02A2B"/>
	<circle cx="156.5" cy="128.5" r="2.5" transform="rotate(90 156.5 128.5)" fill="#D02A2B"/>
	<circle cx="142.5" cy="128.5" r="2.5" transform="rotate(90 142.5 128.5)" fill="#D02A2B"/>
	<circle cx="128.5" cy="128.5" r="2.5" transform="rotate(90 128.5 128.5)" fill="#D02A2B"/>
	<circle cx="114.5" cy="128.5" r="2.5" transform="rotate(90 114.5 128.5)" fill="#D02A2B"/>
	<circle cx="100.5" cy="128.5" r="2.5" transform="rotate(90 100.5 128.5)" fill="#D02A2B"/>
	<circle cx="86.5" cy="128.5" r="2.5" transform="rotate(90 86.5 128.5)" fill="#D02A2B"/>
	<circle cx="72.5" cy="128.5" r="2.5" transform="rotate(90 72.5 128.5)" fill="#D02A2B"/>
	<circle cx="58.5" cy="128.5" r="2.5" transform="rotate(90 58.5 128.5)" fill="#D02A2B"/>
	<circle cx="44.5" cy="128.5" r="2.5" transform="rotate(90 44.5 128.5)" fill="#D02A2B"/>
	<circle cx="30.5" cy="128.5" r="2.5" transform="rotate(90 30.5 128.5)" fill="#D02A2B"/>
	<circle cx="16.5" cy="128.5" r="2.5" transform="rotate(90 16.5 128.5)" fill="#D02A2B"/>
	<circle cx="2.5" cy="128.5" r="2.5" transform="rotate(90 2.5 128.5)" fill="#D02A2B"/>
	<circle cx="254.5" cy="114.5" r="2.5" transform="rotate(90 254.5 114.5)" fill="#D02A2B"/>
	<circle cx="240.5" cy="114.5" r="2.5" transform="rotate(90 240.5 114.5)" fill="#D02A2B"/>
	<circle cx="226.5" cy="114.5" r="2.5" transform="rotate(90 226.5 114.5)" fill="#D02A2B"/>
	<circle cx="212.5" cy="114.5" r="2.5" transform="rotate(90 212.5 114.5)" fill="#D02A2B"/>
	<circle cx="198.5" cy="114.5" r="2.5" transform="rotate(90 198.5 114.5)" fill="#D02A2B"/>
	<circle cx="184.5" cy="114.5" r="2.5" transform="rotate(90 184.5 114.5)" fill="#D02A2B"/>
	<circle cx="170.5" cy="114.5" r="2.5" transform="rotate(90 170.5 114.5)" fill="#D02A2B"/>
	<circle cx="156.5" cy="114.5" r="2.5" transform="rotate(90 156.5 114.5)" fill="#D02A2B"/>
	<circle cx="142.5" cy="114.5" r="2.5" transform="rotate(90 142.5 114.5)" fill="#D02A2B"/>
	<circle cx="128.5" cy="114.5" r="2.5" transform="rotate(90 128.5 114.5)" fill="#D02A2B"/>
	<circle cx="114.5" cy="114.5" r="2.5" transform="rotate(90 114.5 114.5)" fill="#D02A2B"/>
	<circle cx="100.5" cy="114.5" r="2.5" transform="rotate(90 100.5 114.5)" fill="#D02A2B"/>
	<circle cx="86.5" cy="114.5" r="2.5" transform="rotate(90 86.5 114.5)" fill="#D02A2B"/>
	<circle cx="72.5" cy="114.5" r="2.5" transform="rotate(90 72.5 114.5)" fill="#D02A2B"/>
	<circle cx="58.5" cy="114.5" r="2.5" transform="rotate(90 58.5 114.5)" fill="#D02A2B"/>
	<circle cx="44.5" cy="114.5" r="2.5" transform="rotate(90 44.5 114.5)" fill="#D02A2B"/>
	<circle cx="30.5" cy="114.5" r="2.5" transform="rotate(90 30.5 114.5)" fill="#D02A2B"/>
	<circle cx="16.5" cy="114.5" r="2.5" transform="rotate(90 16.5 114.5)" fill="#D02A2B"/>
	<circle cx="2.5" cy="114.5" r="2.5" transform="rotate(90 2.5 114.5)" fill="#D02A2B"/>
	<circle cx="254.5" cy="100.5" r="2.5" transform="rotate(90 254.5 100.5)" fill="#D02A2B"/>
	<circle cx="240.5" cy="100.5" r="2.5" transform="rotate(90 240.5 100.5)" fill="#D02A2B"/>
	<circle cx="226.5" cy="100.5" r="2.5" transform="rotate(90 226.5 100.5)" fill="#D02A2B"/>
	<circle cx="212.5" cy="100.5" r="2.5" transform="rotate(90 212.5 100.5)" fill="#D02A2B"/>
	<circle cx="198.5" cy="100.5" r="2.5" transform="rotate(90 198.5 100.5)" fill="#D02A2B"/>
	<circle cx="184.5" cy="100.5" r="2.5" transform="rotate(90 184.5 100.5)" fill="#D02A2B"/>
	<circle cx="170.5" cy="100.5" r="2.5" transform="rotate(90 170.5 100.5)" fill="#D02A2B"/>
	<circle cx="156.5" cy="100.5" r="2.5" transform="rotate(90 156.5 100.5)" fill="#D02A2B"/>
	<circle cx="142.5" cy="100.5" r="2.5" transform="rotate(90 142.5 100.5)" fill="#D02A2B"/>
	<circle cx="128.5" cy="100.5" r="2.5" transform="rotate(90 128.5 100.5)" fill="#D02A2B"/>
	<circle cx="114.5" cy="100.5" r="2.5" transform="rotate(90 114.5 100.5)" fill="#D02A2B"/>
	<circle cx="100.5" cy="100.5" r="2.5" transform="rotate(90 100.5 100.5)" fill="#D02A2B"/>
	<circle cx="86.5" cy="100.5" r="2.5" transform="rotate(90 86.5 100.5)" fill="#D02A2B"/>
	<circle cx="72.5" cy="100.5" r="2.5" transform="rotate(90 72.5 100.5)" fill="#D02A2B"/>
	<circle cx="58.5" cy="100.5" r="2.5" transform="rotate(90 58.5 100.5)" fill="#D02A2B"/>
	<circle cx="44.5" cy="100.5" r="2.5" transform="rotate(90 44.5 100.5)" fill="#D02A2B"/>
	<circle cx="30.5" cy="100.5" r="2.5" transform="rotate(90 30.5 100.5)" fill="#D02A2B"/>
	<circle cx="16.5" cy="100.5" r="2.5" transform="rotate(90 16.5 100.5)" fill="#D02A2B"/>
	<circle cx="2.5" cy="100.5" r="2.5" transform="rotate(90 2.5 100.5)" fill="#D02A2B"/>
	<circle cx="254.5" cy="86.5" r="2.5" transform="rotate(90 254.5 86.5)" fill="#D02A2B"/>
	<circle cx="240.5" cy="86.5" r="2.5" transform="rotate(90 240.5 86.5)" fill="#D02A2B"/>
	<circle cx="226.5" cy="86.5" r="2.5" transform="rotate(90 226.5 86.5)" fill="#D02A2B"/>
	<circle cx="212.5" cy="86.5" r="2.5" transform="rotate(90 212.5 86.5)" fill="#D02A2B"/>
	<circle cx="198.5" cy="86.5" r="2.5" transform="rotate(90 198.5 86.5)" fill="#D02A2B"/>
	<circle cx="184.5" cy="86.5" r="2.5" transform="rotate(90 184.5 86.5)" fill="#D02A2B"/>
	<circle cx="170.5" cy="86.5" r="2.5" transform="rotate(90 170.5 86.5)" fill="#D02A2B"/>
	<circle cx="156.5" cy="86.5" r="2.5" transform="rotate(90 156.5 86.5)" fill="#D02A2B"/>
	<circle cx="142.5" cy="86.5" r="2.5" transform="rotate(90 142.5 86.5)" fill="#D02A2B"/>
	<circle cx="128.5" cy="86.5" r="2.5" transform="rotate(90 128.5 86.5)" fill="#D02A2B"/>
	<circle cx="114.5" cy="86.5" r="2.5" transform="rotate(90 114.5 86.5)" fill="#D02A2B"/>
	<circle cx="100.5" cy="86.5" r="2.5" transform="rotate(90 100.5 86.5)" fill="#D02A2B"/>
	<circle cx="86.5" cy="86.5" r="2.5" transform="rotate(90 86.5 86.5)" fill="#D02A2B"/>
	<circle cx="72.5" cy="86.5" r="2.5" transform="rotate(90 72.5 86.5)" fill="#D02A2B"/>
	<circle cx="58.5" cy="86.5" r="2.5" transform="rotate(90 58.5 86.5)" fill="#D02A2B"/>
	<circle cx="44.5" cy="86.5" r="2.5" transform="rotate(90 44.5 86.5)" fill="#D02A2B"/>
	<circle cx="30.5" cy="86.5" r="2.5" transform="rotate(90 30.5 86.5)" fill="#D02A2B"/>
	<circle cx="16.5" cy="86.5" r="2.5" transform="rotate(90 16.5 86.5)" fill="#D02A2B"/>
	<circle cx="2.5" cy="86.5" r="2.5" transform="rotate(90 2.5 86.5)" fill="#D02A2B"/>
	<circle cx="254.5" cy="72.5" r="2.5" transform="rotate(90 254.5 72.5)" fill="#D02A2B"/>
	<circle cx="240.5" cy="72.5" r="2.5" transform="rotate(90 240.5 72.5)" fill="#D02A2B"/>
	<circle cx="226.5" cy="72.5" r="2.5" transform="rotate(90 226.5 72.5)" fill="#D02A2B"/>
	<circle cx="212.5" cy="72.5" r="2.5" transform="rotate(90 212.5 72.5)" fill="#D02A2B"/>
	<circle cx="198.5" cy="72.5" r="2.5" transform="rotate(90 198.5 72.5)" fill="#D02A2B"/>
	<circle cx="184.5" cy="72.5" r="2.5" transform="rotate(90 184.5 72.5)" fill="#D02A2B"/>
	<circle cx="170.5" cy="72.5" r="2.5" transform="rotate(90 170.5 72.5)" fill="#D02A2B"/>
	<circle cx="156.5" cy="72.5" r="2.5" transform="rotate(90 156.5 72.5)" fill="#D02A2B"/>
	<circle cx="142.5" cy="72.5" r="2.5" transform="rotate(90 142.5 72.5)" fill="#D02A2B"/>
	<circle cx="128.5" cy="72.5" r="2.5" transform="rotate(90 128.5 72.5)" fill="#D02A2B"/>
	<circle cx="114.5" cy="72.5" r="2.5" transform="rotate(90 114.5 72.5)" fill="#D02A2B"/>
	<circle cx="100.5" cy="72.5" r="2.5" transform="rotate(90 100.5 72.5)" fill="#D02A2B"/>
	<circle cx="86.5" cy="72.5" r="2.5" transform="rotate(90 86.5 72.5)" fill="#D02A2B"/>
	<circle cx="72.5" cy="72.5" r="2.5" transform="rotate(90 72.5 72.5)" fill="#D02A2B"/>
	<circle cx="58.5" cy="72.5" r="2.5" transform="rotate(90 58.5 72.5)" fill="#D02A2B"/>
	<circle cx="44.5" cy="72.5" r="2.5" transform="rotate(90 44.5 72.5)" fill="#D02A2B"/>
	<circle cx="30.5" cy="72.5" r="2.5" transform="rotate(90 30.5 72.5)" fill="#D02A2B"/>
	<circle cx="16.5" cy="72.5" r="2.5" transform="rotate(90 16.5 72.5)" fill="#D02A2B"/>
	<circle cx="2.5" cy="72.5" r="2.5" transform="rotate(90 2.5 72.5)" fill="#D02A2B"/>
	<circle cx="254.5" cy="58.5" r="2.5" transform="rotate(90 254.5 58.5)" fill="#D02A2B"/>
	<circle cx="240.5" cy="58.5" r="2.5" transform="rotate(90 240.5 58.5)" fill="#D02A2B"/>
	<circle cx="226.5" cy="58.5" r="2.5" transform="rotate(90 226.5 58.5)" fill="#D02A2B"/>
	<circle cx="212.5" cy="58.5" r="2.5" transform="rotate(90 212.5 58.5)" fill="#D02A2B"/>
	<circle cx="198.5" cy="58.5" r="2.5" transform="rotate(90 198.5 58.5)" fill="#D02A2B"/>
	<circle cx="184.5" cy="58.5" r="2.5" transform="rotate(90 184.5 58.5)" fill="#D02A2B"/>
	<circle cx="170.5" cy="58.5" r="2.5" transform="rotate(90 170.5 58.5)" fill="#D02A2B"/>
	<circle cx="156.5" cy="58.5" r="2.5" transform="rotate(90 156.5 58.5)" fill="#D02A2B"/>
	<circle cx="142.5" cy="58.5" r="2.5" transform="rotate(90 142.5 58.5)" fill="#D02A2B"/>
	<circle cx="128.5" cy="58.5" r="2.5" transform="rotate(90 128.5 58.5)" fill="#D02A2B"/>
	<circle cx="114.5" cy="58.5" r="2.5" transform="rotate(90 114.5 58.5)" fill="#D02A2B"/>
	<circle cx="100.5" cy="58.5" r="2.5" transform="rotate(90 100.5 58.5)" fill="#D02A2B"/>
	<circle cx="86.5" cy="58.5" r="2.5" transform="rotate(90 86.5 58.5)" fill="#D02A2B"/>
	<circle cx="72.5" cy="58.5" r="2.5" transform="rotate(90 72.5 58.5)" fill="#D02A2B"/>
	<circle cx="58.5" cy="58.5" r="2.5" transform="rotate(90 58.5 58.5)" fill="#D02A2B"/>
	<circle cx="44.5" cy="58.5" r="2.5" transform="rotate(90 44.5 58.5)" fill="#D02A2B"/>
	<circle cx="30.5" cy="58.5" r="2.5" transform="rotate(90 30.5 58.5)" fill="#D02A2B"/>
	<circle cx="16.5" cy="58.5" r="2.5" transform="rotate(90 16.5 58.5)" fill="#D02A2B"/>
	<circle cx="2.5" cy="58.5" r="2.5" transform="rotate(90 2.5 58.5)" fill="#D02A2B"/>
	<circle cx="254.5" cy="44.5" r="2.5" transform="rotate(90 254.5 44.5)" fill="#D02A2B"/>
	<circle cx="240.5" cy="44.5" r="2.5" transform="rotate(90 240.5 44.5)" fill="#D02A2B"/>
	<circle cx="226.5" cy="44.5" r="2.5" transform="rotate(90 226.5 44.5)" fill="#D02A2B"/>
	<circle cx="212.5" cy="44.5" r="2.5" transform="rotate(90 212.5 44.5)" fill="#D02A2B"/>
	<circle cx="198.5" cy="44.5" r="2.5" transform="rotate(90 198.5 44.5)" fill="#D02A2B"/>
	<circle cx="184.5" cy="44.5" r="2.5" transform="rotate(90 184.5 44.5)" fill="#D02A2B"/>
	<circle cx="170.5" cy="44.5" r="2.5" transform="rotate(90 170.5 44.5)" fill="#D02A2B"/>
	<circle cx="156.5" cy="44.5" r="2.5" transform="rotate(90 156.5 44.5)" fill="#D02A2B"/>
	<circle cx="142.5" cy="44.5" r="2.5" transform="rotate(90 142.5 44.5)" fill="#D02A2B"/>
	<circle cx="128.5" cy="44.5" r="2.5" transform="rotate(90 128.5 44.5)" fill="#D02A2B"/>
	<circle cx="114.5" cy="44.5" r="2.5" transform="rotate(90 114.5 44.5)" fill="#D02A2B"/>
	<circle cx="100.5" cy="44.5" r="2.5" transform="rotate(90 100.5 44.5)" fill="#D02A2B"/>
	<circle cx="86.5" cy="44.5" r="2.5" transform="rotate(90 86.5 44.5)" fill="#D02A2B"/>
	<circle cx="72.5" cy="44.5" r="2.5" transform="rotate(90 72.5 44.5)" fill="#D02A2B"/>
	<circle cx="58.5" cy="44.5" r="2.5" transform="rotate(90 58.5 44.5)" fill="#D02A2B"/>
	<circle cx="44.5" cy="44.5" r="2.5" transform="rotate(90 44.5 44.5)" fill="#D02A2B"/>
	<circle cx="30.5" cy="44.5" r="2.5" transform="rotate(90 30.5 44.5)" fill="#D02A2B"/>
	<circle cx="16.5" cy="44.5" r="2.5" transform="rotate(90 16.5 44.5)" fill="#D02A2B"/>
	<circle cx="2.5" cy="44.5" r="2.5" transform="rotate(90 2.5 44.5)" fill="#D02A2B"/>
	<circle cx="254.5" cy="30.5" r="2.5" transform="rotate(90 254.5 30.5)" fill="#D02A2B"/>
	<circle cx="240.5" cy="30.5" r="2.5" transform="rotate(90 240.5 30.5)" fill="#D02A2B"/>
	<circle cx="226.5" cy="30.5" r="2.5" transform="rotate(90 226.5 30.5)" fill="#D02A2B"/>
	<circle cx="212.5" cy="30.5" r="2.5" transform="rotate(90 212.5 30.5)" fill="#D02A2B"/>
	<circle cx="198.5" cy="30.5" r="2.5" transform="rotate(90 198.5 30.5)" fill="#D02A2B"/>
	<circle cx="184.5" cy="30.5" r="2.5" transform="rotate(90 184.5 30.5)" fill="#D02A2B"/>
	<circle cx="170.5" cy="30.5" r="2.5" transform="rotate(90 170.5 30.5)" fill="#D02A2B"/>
	<circle cx="156.5" cy="30.5" r="2.5" transform="rotate(90 156.5 30.5)" fill="#D02A2B"/>
	<circle cx="142.5" cy="30.5" r="2.5" transform="rotate(90 142.5 30.5)" fill="#D02A2B"/>
	<circle cx="128.5" cy="30.5" r="2.5" transform="rotate(90 128.5 30.5)" fill="#D02A2B"/>
	<circle cx="114.5" cy="30.5" r="2.5" transform="rotate(90 114.5 30.5)" fill="#D02A2B"/>
	<circle cx="100.5" cy="30.5" r="2.5" transform="rotate(90 100.5 30.5)" fill="#D02A2B"/>
	<circle cx="86.5" cy="30.5" r="2.5" transform="rotate(90 86.5 30.5)" fill="#D02A2B"/>
	<circle cx="72.5" cy="30.5" r="2.5" transform="rotate(90 72.5 30.5)" fill="#D02A2B"/>
	<circle cx="58.5" cy="30.5" r="2.5" transform="rotate(90 58.5 30.5)" fill="#D02A2B"/>
	<circle cx="44.5" cy="30.5" r="2.5" transform="rotate(90 44.5 30.5)" fill="#D02A2B"/>
	<circle cx="30.5" cy="30.5" r="2.5" transform="rotate(90 30.5 30.5)" fill="#D02A2B"/>
	<circle cx="16.5" cy="30.5" r="2.5" transform="rotate(90 16.5 30.5)" fill="#D02A2B"/>
	<circle cx="2.5" cy="30.5" r="2.5" transform="rotate(90 2.5 30.5)" fill="#D02A2B"/>
	<circle cx="254.5" cy="16.5" r="2.5" transform="rotate(90 254.5 16.5)" fill="#D02A2B"/>
	<circle cx="240.5" cy="16.5" r="2.5" transform="rotate(90 240.5 16.5)" fill="#D02A2B"/>
	<circle cx="226.5" cy="16.5" r="2.5" transform="rotate(90 226.5 16.5)" fill="#D02A2B"/>
	<circle cx="212.5" cy="16.5" r="2.5" transform="rotate(90 212.5 16.5)" fill="#D02A2B"/>
	<circle cx="198.5" cy="16.5" r="2.5" transform="rotate(90 198.5 16.5)" fill="#D02A2B"/>
	<circle cx="184.5" cy="16.5" r="2.5" transform="rotate(90 184.5 16.5)" fill="#D02A2B"/>
	<circle cx="170.5" cy="16.5" r="2.5" transform="rotate(90 170.5 16.5)" fill="#D02A2B"/>
	<circle cx="156.5" cy="16.5" r="2.5" transform="rotate(90 156.5 16.5)" fill="#D02A2B"/>
	<circle cx="142.5" cy="16.5" r="2.5" transform="rotate(90 142.5 16.5)" fill="#D02A2B"/>
	<circle cx="128.5" cy="16.5" r="2.5" transform="rotate(90 128.5 16.5)" fill="#D02A2B"/>
	<circle cx="114.5" cy="16.5" r="2.5" transform="rotate(90 114.5 16.5)" fill="#D02A2B"/>
	<circle cx="100.5" cy="16.5" r="2.5" transform="rotate(90 100.5 16.5)" fill="#D02A2B"/>
	<circle cx="86.5" cy="16.5" r="2.5" transform="rotate(90 86.5 16.5)" fill="#D02A2B"/>
	<circle cx="72.5" cy="16.5" r="2.5" transform="rotate(90 72.5 16.5)" fill="#D02A2B"/>
	<circle cx="58.5" cy="16.5" r="2.5" transform="rotate(90 58.5 16.5)" fill="#D02A2B"/>
	<circle cx="44.5" cy="16.5" r="2.5" transform="rotate(90 44.5 16.5)" fill="#D02A2B"/>
	<circle cx="30.5" cy="16.5" r="2.5" transform="rotate(90 30.5 16.5)" fill="#D02A2B"/>
	<circle cx="16.5" cy="16.5" r="2.5" transform="rotate(90 16.5 16.5)" fill="#D02A2B"/>
	<circle cx="2.5" cy="16.5" r="2.5" transform="rotate(90 2.5 16.5)" fill="#D02A2B"/>
	<circle cx="254.5" cy="2.5" r="2.5" transform="rotate(90 254.5 2.5)" fill="#D02A2B"/>
	<circle cx="240.5" cy="2.5" r="2.5" transform="rotate(90 240.5 2.5)" fill="#D02A2B"/>
	<circle cx="226.5" cy="2.5" r="2.5" transform="rotate(90 226.5 2.5)" fill="#D02A2B"/>
	<circle cx="212.5" cy="2.5" r="2.5" transform="rotate(90 212.5 2.5)" fill="#D02A2B"/>
	<circle cx="198.5" cy="2.5" r="2.5" transform="rotate(90 198.5 2.5)" fill="#D02A2B"/>
	<circle cx="184.5" cy="2.5" r="2.5" transform="rotate(90 184.5 2.5)" fill="#D02A2B"/>
	<circle cx="170.5" cy="2.5" r="2.5" transform="rotate(90 170.5 2.5)" fill="#D02A2B"/>
	<circle cx="156.5" cy="2.5" r="2.5" transform="rotate(90 156.5 2.5)" fill="#D02A2B"/>
	<circle cx="142.5" cy="2.5" r="2.5" transform="rotate(90 142.5 2.5)" fill="#D02A2B"/>
	<circle cx="128.5" cy="2.5" r="2.5" transform="rotate(90 128.5 2.5)" fill="#D02A2B"/>
	<circle cx="114.5" cy="2.5" r="2.5" transform="rotate(90 114.5 2.5)" fill="#D02A2B"/>
	<circle cx="100.5" cy="2.5" r="2.5" transform="rotate(90 100.5 2.5)" fill="#D02A2B"/>
	<circle cx="86.5" cy="2.5" r="2.5" transform="rotate(90 86.5 2.5)" fill="#D02A2B"/>
	<circle cx="72.5" cy="2.5" r="2.5" transform="rotate(90 72.5 2.5)" fill="#D02A2B"/>
	<circle cx="58.5" cy="2.5" r="2.5" transform="rotate(90 58.5 2.5)" fill="#D02A2B"/>
	<circle cx="44.5" cy="2.5" r="2.5" transform="rotate(90 44.5 2.5)" fill="#D02A2B"/>
	<circle cx="30.5" cy="2.5" r="2.5" transform="rotate(90 30.5 2.5)" fill="#D02A2B"/>
	<circle cx="16.5" cy="2.5" r="2.5" transform="rotate(90 16.5 2.5)" fill="#D02A2B"/>
	<circle cx="2.5" cy="2.5" r="2.5" transform="rotate(90 2.5 2.5)" fill="#D02A2B"/>
</svg>
