<svg width="435" height="100" viewBox="0 0 435 100" fill="none" xmlns="http://www.w3.org/2000/svg">
	<ellipse cx="2.5" cy="2.49292" rx="2.5" ry="2.49292" fill="#D02A2B"/>
	<ellipse cx="14.5" cy="2.49292" rx="2.5" ry="2.49292" fill="#D02A2B"/>
	<ellipse cx="26.5" cy="2.49292" rx="2.5" ry="2.49292" fill="#D02A2B"/>
	<ellipse cx="2.5" cy="15.4573" rx="2.5" ry="2.49292" fill="#D02A2B"/>
	<ellipse cx="2.5" cy="29.4189" rx="2.5" ry="2.49316" fill="#D02A2B"/>
	<ellipse cx="2.5" cy="43.3806" rx="2.5" ry="2.49341" fill="#D02A2B"/>
	<ellipse cx="14.5" cy="15.4573" rx="2.5" ry="2.49292" fill="#D02A2B"/>
	<ellipse cx="14.5" cy="29.4189" rx="2.5" ry="2.49316" fill="#D02A2B"/>
	<ellipse cx="14.5" cy="43.3806" rx="2.5" ry="2.49341" fill="#D02A2B"/>
	<ellipse cx="26.5" cy="15.4573" rx="2.5" ry="2.49292" fill="#D02A2B"/>
	<ellipse cx="26.5" cy="29.4189" rx="2.5" ry="2.49316" fill="#D02A2B"/>
	<ellipse cx="26.5" cy="43.3806" rx="2.5" ry="2.49341" fill="#D02A2B"/>
	<ellipse cx="39.5" cy="2.49292" rx="2.5" ry="2.49292" fill="#D02A2B"/>
	<ellipse cx="51.5" cy="2.49292" rx="2.5" ry="2.49292" fill="#D02A2B"/>
	<ellipse cx="63.5" cy="2.49292" rx="2.5" ry="2.49292" fill="#D02A2B"/>
	<ellipse cx="39.5" cy="15.4573" rx="2.5" ry="2.49292" fill="#D02A2B"/>
	<ellipse cx="39.5" cy="29.4189" rx="2.5" ry="2.49316" fill="#D02A2B"/>
	<ellipse cx="39.5" cy="43.3806" rx="2.5" ry="2.49341" fill="#D02A2B"/>
	<ellipse cx="51.5" cy="15.4573" rx="2.5" ry="2.49292" fill="#D02A2B"/>
	<ellipse cx="51.5" cy="29.4189" rx="2.5" ry="2.49316" fill="#D02A2B"/>
	<ellipse cx="51.5" cy="43.3806" rx="2.5" ry="2.49341" fill="#D02A2B"/>
	<ellipse cx="63.5" cy="15.4573" rx="2.5" ry="2.49292" fill="#D02A2B"/>
	<ellipse cx="63.5" cy="29.4189" rx="2.5" ry="2.49316" fill="#D02A2B"/>
	<ellipse cx="63.5" cy="43.3806" rx="2.5" ry="2.49341" fill="#D02A2B"/>
	<ellipse cx="76.5" cy="2.49292" rx="2.5" ry="2.49292" fill="#D02A2B"/>
	<ellipse cx="88.5" cy="2.49292" rx="2.5" ry="2.49292" fill="#D02A2B"/>
	<ellipse cx="100.5" cy="2.49292" rx="2.5" ry="2.49292" fill="#D02A2B"/>
	<ellipse cx="76.5" cy="15.4573" rx="2.5" ry="2.49292" fill="#D02A2B"/>
	<ellipse cx="76.5" cy="29.4189" rx="2.5" ry="2.49316" fill="#D02A2B"/>
	<ellipse cx="76.5" cy="43.3806" rx="2.5" ry="2.49341" fill="#D02A2B"/>
	<ellipse cx="88.5" cy="15.4573" rx="2.5" ry="2.49292" fill="#D02A2B"/>
	<ellipse cx="88.5" cy="29.4189" rx="2.5" ry="2.49316" fill="#D02A2B"/>
	<ellipse cx="88.5" cy="43.3806" rx="2.5" ry="2.49341" fill="#D02A2B"/>
	<ellipse cx="100.5" cy="15.4573" rx="2.5" ry="2.49292" fill="#D02A2B"/>
	<ellipse cx="100.5" cy="29.4189" rx="2.5" ry="2.49316" fill="#D02A2B"/>
	<ellipse cx="100.5" cy="43.3806" rx="2.5" ry="2.49341" fill="#D02A2B"/>
	<ellipse cx="113.5" cy="2.49292" rx="2.5" ry="2.49292" fill="#D02A2B"/>
	<ellipse cx="125.5" cy="2.49292" rx="2.5" ry="2.49292" fill="#D02A2B"/>
	<ellipse cx="137.5" cy="2.49292" rx="2.5" ry="2.49292" fill="#D02A2B"/>
	<ellipse cx="113.5" cy="15.4573" rx="2.5" ry="2.49292" fill="#D02A2B"/>
	<ellipse cx="113.5" cy="29.4189" rx="2.5" ry="2.49316" fill="#D02A2B"/>
	<ellipse cx="113.5" cy="43.3806" rx="2.5" ry="2.49341" fill="#D02A2B"/>
	<ellipse cx="125.5" cy="15.4573" rx="2.5" ry="2.49292" fill="#D02A2B"/>
	<ellipse cx="125.5" cy="29.4189" rx="2.5" ry="2.49316" fill="#D02A2B"/>
	<ellipse cx="125.5" cy="43.3806" rx="2.5" ry="2.49341" fill="#D02A2B"/>
	<ellipse cx="137.5" cy="15.4573" rx="2.5" ry="2.49292" fill="#D02A2B"/>
	<ellipse cx="137.5" cy="29.4189" rx="2.5" ry="2.49316" fill="#D02A2B"/>
	<ellipse cx="137.5" cy="43.3806" rx="2.5" ry="2.49341" fill="#D02A2B"/>
	<ellipse cx="150.5" cy="2.49292" rx="2.5" ry="2.49292" fill="#D02A2B"/>
	<ellipse cx="162.5" cy="2.49292" rx="2.5" ry="2.49292" fill="#D02A2B"/>
	<ellipse cx="174.5" cy="2.49292" rx="2.5" ry="2.49292" fill="#D02A2B"/>
	<ellipse cx="150.5" cy="15.4573" rx="2.5" ry="2.49292" fill="#D02A2B"/>
	<ellipse cx="150.5" cy="29.4189" rx="2.5" ry="2.49316" fill="#D02A2B"/>
	<ellipse cx="150.5" cy="43.3806" rx="2.5" ry="2.49341" fill="#D02A2B"/>
	<ellipse cx="162.5" cy="15.4573" rx="2.5" ry="2.49292" fill="#D02A2B"/>
	<ellipse cx="162.5" cy="29.4189" rx="2.5" ry="2.49316" fill="#D02A2B"/>
	<ellipse cx="162.5" cy="43.3806" rx="2.5" ry="2.49341" fill="#D02A2B"/>
	<ellipse cx="174.5" cy="15.4573" rx="2.5" ry="2.49292" fill="#D02A2B"/>
	<ellipse cx="174.5" cy="29.4189" rx="2.5" ry="2.49316" fill="#D02A2B"/>
	<ellipse cx="174.5" cy="43.3806" rx="2.5" ry="2.49341" fill="#D02A2B"/>
	<ellipse cx="187.5" cy="2.49292" rx="2.5" ry="2.49292" fill="#D02A2B"/>
	<ellipse cx="199.5" cy="2.49292" rx="2.5" ry="2.49292" fill="#D02A2B"/>
	<ellipse cx="211.5" cy="2.49292" rx="2.5" ry="2.49292" fill="#D02A2B"/>
	<ellipse cx="187.5" cy="15.4573" rx="2.5" ry="2.49292" fill="#D02A2B"/>
	<ellipse cx="187.5" cy="29.4189" rx="2.5" ry="2.49316" fill="#D02A2B"/>
	<ellipse cx="187.5" cy="43.3806" rx="2.5" ry="2.49341" fill="#D02A2B"/>
	<ellipse cx="199.5" cy="15.4573" rx="2.5" ry="2.49292" fill="#D02A2B"/>
	<ellipse cx="199.5" cy="29.4189" rx="2.5" ry="2.49316" fill="#D02A2B"/>
	<ellipse cx="199.5" cy="43.3806" rx="2.5" ry="2.49341" fill="#D02A2B"/>
	<ellipse cx="211.5" cy="15.4573" rx="2.5" ry="2.49292" fill="#D02A2B"/>
	<ellipse cx="211.5" cy="29.4189" rx="2.5" ry="2.49316" fill="#D02A2B"/>
	<ellipse cx="211.5" cy="43.3806" rx="2.5" ry="2.49341" fill="#D02A2B"/>
	<ellipse cx="223.5" cy="2.49292" rx="2.5" ry="2.49292" fill="#D02A2B"/>
	<ellipse cx="235.5" cy="2.49292" rx="2.5" ry="2.49292" fill="#D02A2B"/>
	<ellipse cx="247.5" cy="2.49292" rx="2.5" ry="2.49292" fill="#D02A2B"/>
	<ellipse cx="223.5" cy="15.4573" rx="2.5" ry="2.49292" fill="#D02A2B"/>
	<ellipse cx="223.5" cy="29.4189" rx="2.5" ry="2.49316" fill="#D02A2B"/>
	<ellipse cx="223.5" cy="43.3806" rx="2.5" ry="2.49341" fill="#D02A2B"/>
	<ellipse cx="235.5" cy="15.4573" rx="2.5" ry="2.49292" fill="#D02A2B"/>
	<ellipse cx="235.5" cy="29.4189" rx="2.5" ry="2.49316" fill="#D02A2B"/>
	<ellipse cx="235.5" cy="43.3806" rx="2.5" ry="2.49341" fill="#D02A2B"/>
	<ellipse cx="247.5" cy="15.4573" rx="2.5" ry="2.49292" fill="#D02A2B"/>
	<ellipse cx="247.5" cy="29.4189" rx="2.5" ry="2.49316" fill="#D02A2B"/>
	<ellipse cx="247.5" cy="43.3806" rx="2.5" ry="2.49341" fill="#D02A2B"/>
	<ellipse cx="260.5" cy="2.49292" rx="2.5" ry="2.49292" fill="#D02A2B"/>
	<ellipse cx="272.5" cy="2.49292" rx="2.5" ry="2.49292" fill="#D02A2B"/>
	<ellipse cx="284.5" cy="2.49292" rx="2.5" ry="2.49292" fill="#D02A2B"/>
	<ellipse cx="260.5" cy="15.4573" rx="2.5" ry="2.49292" fill="#D02A2B"/>
	<ellipse cx="260.5" cy="29.4189" rx="2.5" ry="2.49316" fill="#D02A2B"/>
	<ellipse cx="260.5" cy="43.3806" rx="2.5" ry="2.49341" fill="#D02A2B"/>
	<ellipse cx="272.5" cy="15.4573" rx="2.5" ry="2.49292" fill="#D02A2B"/>
	<ellipse cx="272.5" cy="29.4189" rx="2.5" ry="2.49316" fill="#D02A2B"/>
	<ellipse cx="272.5" cy="43.3806" rx="2.5" ry="2.49341" fill="#D02A2B"/>
	<ellipse cx="284.5" cy="15.4573" rx="2.5" ry="2.49292" fill="#D02A2B"/>
	<ellipse cx="284.5" cy="29.4189" rx="2.5" ry="2.49316" fill="#D02A2B"/>
	<ellipse cx="284.5" cy="43.3806" rx="2.5" ry="2.49341" fill="#D02A2B"/>
	<ellipse cx="297.5" cy="2.49292" rx="2.5" ry="2.49292" fill="#D02A2B"/>
	<ellipse cx="309.5" cy="2.49292" rx="2.5" ry="2.49292" fill="#D02A2B"/>
	<ellipse cx="321.5" cy="2.49292" rx="2.5" ry="2.49292" fill="#D02A2B"/>
	<ellipse cx="297.5" cy="15.4573" rx="2.5" ry="2.49292" fill="#D02A2B"/>
	<ellipse cx="297.5" cy="29.4189" rx="2.5" ry="2.49316" fill="#D02A2B"/>
	<ellipse cx="297.5" cy="43.3806" rx="2.5" ry="2.49341" fill="#D02A2B"/>
	<ellipse cx="309.5" cy="15.4573" rx="2.5" ry="2.49292" fill="#D02A2B"/>
	<ellipse cx="309.5" cy="29.4189" rx="2.5" ry="2.49316" fill="#D02A2B"/>
	<ellipse cx="309.5" cy="43.3806" rx="2.5" ry="2.49341" fill="#D02A2B"/>
	<ellipse cx="321.5" cy="15.4573" rx="2.5" ry="2.49292" fill="#D02A2B"/>
	<ellipse cx="321.5" cy="29.4189" rx="2.5" ry="2.49316" fill="#D02A2B"/>
	<ellipse cx="321.5" cy="43.3806" rx="2.5" ry="2.49341" fill="#D02A2B"/>
	<ellipse cx="334.5" cy="2.49292" rx="2.5" ry="2.49292" fill="#D02A2B"/>
	<ellipse cx="346.5" cy="2.49292" rx="2.5" ry="2.49292" fill="#D02A2B"/>
	<ellipse cx="358.5" cy="2.49292" rx="2.5" ry="2.49292" fill="#D02A2B"/>
	<ellipse cx="334.5" cy="15.4573" rx="2.5" ry="2.49292" fill="#D02A2B"/>
	<ellipse cx="334.5" cy="29.4189" rx="2.5" ry="2.49316" fill="#D02A2B"/>
	<ellipse cx="334.5" cy="43.3806" rx="2.5" ry="2.49341" fill="#D02A2B"/>
	<ellipse cx="346.5" cy="15.4573" rx="2.5" ry="2.49292" fill="#D02A2B"/>
	<ellipse cx="346.5" cy="29.4189" rx="2.5" ry="2.49316" fill="#D02A2B"/>
	<ellipse cx="346.5" cy="43.3806" rx="2.5" ry="2.49341" fill="#D02A2B"/>
	<ellipse cx="358.5" cy="15.4573" rx="2.5" ry="2.49292" fill="#D02A2B"/>
	<ellipse cx="358.5" cy="29.4189" rx="2.5" ry="2.49316" fill="#D02A2B"/>
	<ellipse cx="358.5" cy="43.3806" rx="2.5" ry="2.49341" fill="#D02A2B"/>
	<ellipse cx="371.5" cy="2.49292" rx="2.5" ry="2.49292" fill="#D02A2B"/>
	<ellipse cx="383.5" cy="2.49292" rx="2.5" ry="2.49292" fill="#D02A2B"/>
	<ellipse cx="395.5" cy="2.49292" rx="2.5" ry="2.49292" fill="#D02A2B"/>
	<ellipse cx="371.5" cy="15.4573" rx="2.5" ry="2.49292" fill="#D02A2B"/>
	<ellipse cx="371.5" cy="29.4189" rx="2.5" ry="2.49316" fill="#D02A2B"/>
	<ellipse cx="371.5" cy="43.3806" rx="2.5" ry="2.49341" fill="#D02A2B"/>
	<ellipse cx="383.5" cy="15.4573" rx="2.5" ry="2.49292" fill="#D02A2B"/>
	<ellipse cx="383.5" cy="29.4189" rx="2.5" ry="2.49316" fill="#D02A2B"/>
	<ellipse cx="383.5" cy="43.3806" rx="2.5" ry="2.49341" fill="#D02A2B"/>
	<ellipse cx="395.5" cy="15.4573" rx="2.5" ry="2.49292" fill="#D02A2B"/>
	<ellipse cx="395.5" cy="29.4189" rx="2.5" ry="2.49316" fill="#D02A2B"/>
	<ellipse cx="395.5" cy="43.3806" rx="2.5" ry="2.49341" fill="#D02A2B"/>
	<ellipse cx="408.5" cy="2.49292" rx="2.5" ry="2.49292" fill="#D02A2B"/>
	<ellipse cx="420.5" cy="2.49292" rx="2.5" ry="2.49292" fill="#D02A2B"/>
	<ellipse cx="432.5" cy="2.49292" rx="2.5" ry="2.49292" fill="#D02A2B"/>
	<ellipse cx="408.5" cy="15.4573" rx="2.5" ry="2.49292" fill="#D02A2B"/>
	<ellipse cx="408.5" cy="29.4189" rx="2.5" ry="2.49316" fill="#D02A2B"/>
	<ellipse cx="408.5" cy="43.3806" rx="2.5" ry="2.49341" fill="#D02A2B"/>
	<ellipse cx="420.5" cy="15.4573" rx="2.5" ry="2.49292" fill="#D02A2B"/>
	<ellipse cx="420.5" cy="29.4189" rx="2.5" ry="2.49316" fill="#D02A2B"/>
	<ellipse cx="420.5" cy="43.3806" rx="2.5" ry="2.49341" fill="#D02A2B"/>
	<ellipse cx="432.5" cy="15.4573" rx="2.5" ry="2.49292" fill="#D02A2B"/>
	<ellipse cx="432.5" cy="29.4189" rx="2.5" ry="2.49316" fill="#D02A2B"/>
	<ellipse cx="432.5" cy="43.3806" rx="2.5" ry="2.49341" fill="#D02A2B"/>
	<ellipse cx="2.5" cy="56.4929" rx="2.5" ry="2.49292" fill="#D02A2B"/>
	<ellipse cx="14.5" cy="56.4929" rx="2.5" ry="2.49292" fill="#D02A2B"/>
	<ellipse cx="26.5" cy="56.4929" rx="2.5" ry="2.49292" fill="#D02A2B"/>
	<ellipse cx="2.5" cy="69.4573" rx="2.5" ry="2.49292" fill="#D02A2B"/>
	<ellipse cx="2.5" cy="83.4189" rx="2.5" ry="2.49316" fill="#D02A2B"/>
	<ellipse cx="2.5" cy="97.3806" rx="2.5" ry="2.49341" fill="#D02A2B"/>
	<ellipse cx="14.5" cy="69.4573" rx="2.5" ry="2.49292" fill="#D02A2B"/>
	<ellipse cx="14.5" cy="83.4189" rx="2.5" ry="2.49316" fill="#D02A2B"/>
	<ellipse cx="14.5" cy="97.3806" rx="2.5" ry="2.49341" fill="#D02A2B"/>
	<ellipse cx="26.5" cy="69.4573" rx="2.5" ry="2.49292" fill="#D02A2B"/>
	<ellipse cx="26.5" cy="83.4189" rx="2.5" ry="2.49316" fill="#D02A2B"/>
	<ellipse cx="26.5" cy="97.3806" rx="2.5" ry="2.49341" fill="#D02A2B"/>
	<ellipse cx="39.5" cy="56.4929" rx="2.5" ry="2.49292" fill="#D02A2B"/>
	<ellipse cx="51.5" cy="56.4929" rx="2.5" ry="2.49292" fill="#D02A2B"/>
	<ellipse cx="63.5" cy="56.4929" rx="2.5" ry="2.49292" fill="#D02A2B"/>
	<ellipse cx="39.5" cy="69.4573" rx="2.5" ry="2.49292" fill="#D02A2B"/>
	<ellipse cx="39.5" cy="83.4189" rx="2.5" ry="2.49316" fill="#D02A2B"/>
	<ellipse cx="39.5" cy="97.3806" rx="2.5" ry="2.49341" fill="#D02A2B"/>
	<ellipse cx="51.5" cy="69.4573" rx="2.5" ry="2.49292" fill="#D02A2B"/>
	<ellipse cx="51.5" cy="83.4189" rx="2.5" ry="2.49316" fill="#D02A2B"/>
	<ellipse cx="51.5" cy="97.3806" rx="2.5" ry="2.49341" fill="#D02A2B"/>
	<ellipse cx="63.5" cy="69.4573" rx="2.5" ry="2.49292" fill="#D02A2B"/>
	<ellipse cx="63.5" cy="83.4189" rx="2.5" ry="2.49316" fill="#D02A2B"/>
	<ellipse cx="63.5" cy="97.3806" rx="2.5" ry="2.49341" fill="#D02A2B"/>
	<ellipse cx="76.5" cy="56.4929" rx="2.5" ry="2.49292" fill="#D02A2B"/>
	<ellipse cx="88.5" cy="56.4929" rx="2.5" ry="2.49292" fill="#D02A2B"/>
	<ellipse cx="100.5" cy="56.4929" rx="2.5" ry="2.49292" fill="#D02A2B"/>
	<ellipse cx="76.5" cy="69.4573" rx="2.5" ry="2.49292" fill="#D02A2B"/>
	<ellipse cx="76.5" cy="83.4189" rx="2.5" ry="2.49316" fill="#D02A2B"/>
	<ellipse cx="76.5" cy="97.3806" rx="2.5" ry="2.49341" fill="#D02A2B"/>
	<ellipse cx="88.5" cy="69.4573" rx="2.5" ry="2.49292" fill="#D02A2B"/>
	<ellipse cx="88.5" cy="83.4189" rx="2.5" ry="2.49316" fill="#D02A2B"/>
	<ellipse cx="88.5" cy="97.3806" rx="2.5" ry="2.49341" fill="#D02A2B"/>
	<ellipse cx="100.5" cy="69.4573" rx="2.5" ry="2.49292" fill="#D02A2B"/>
	<ellipse cx="100.5" cy="83.4189" rx="2.5" ry="2.49316" fill="#D02A2B"/>
	<ellipse cx="100.5" cy="97.3806" rx="2.5" ry="2.49341" fill="#D02A2B"/>
	<ellipse cx="113.5" cy="56.4929" rx="2.5" ry="2.49292" fill="#D02A2B"/>
	<ellipse cx="125.5" cy="56.4929" rx="2.5" ry="2.49292" fill="#D02A2B"/>
	<ellipse cx="137.5" cy="56.4929" rx="2.5" ry="2.49292" fill="#D02A2B"/>
	<ellipse cx="113.5" cy="69.4573" rx="2.5" ry="2.49292" fill="#D02A2B"/>
	<ellipse cx="113.5" cy="83.4189" rx="2.5" ry="2.49316" fill="#D02A2B"/>
	<ellipse cx="113.5" cy="97.3806" rx="2.5" ry="2.49341" fill="#D02A2B"/>
	<ellipse cx="125.5" cy="69.4573" rx="2.5" ry="2.49292" fill="#D02A2B"/>
	<ellipse cx="125.5" cy="83.4189" rx="2.5" ry="2.49316" fill="#D02A2B"/>
	<ellipse cx="125.5" cy="97.3806" rx="2.5" ry="2.49341" fill="#D02A2B"/>
	<ellipse cx="137.5" cy="69.4573" rx="2.5" ry="2.49292" fill="#D02A2B"/>
	<ellipse cx="137.5" cy="83.4189" rx="2.5" ry="2.49316" fill="#D02A2B"/>
	<ellipse cx="137.5" cy="97.3806" rx="2.5" ry="2.49341" fill="#D02A2B"/>
	<ellipse cx="150.5" cy="56.4929" rx="2.5" ry="2.49292" fill="#D02A2B"/>
	<ellipse cx="162.5" cy="56.4929" rx="2.5" ry="2.49292" fill="#D02A2B"/>
	<ellipse cx="174.5" cy="56.4929" rx="2.5" ry="2.49292" fill="#D02A2B"/>
	<ellipse cx="150.5" cy="69.4573" rx="2.5" ry="2.49292" fill="#D02A2B"/>
	<ellipse cx="150.5" cy="83.4189" rx="2.5" ry="2.49316" fill="#D02A2B"/>
	<ellipse cx="150.5" cy="97.3806" rx="2.5" ry="2.49341" fill="#D02A2B"/>
	<ellipse cx="162.5" cy="69.4573" rx="2.5" ry="2.49292" fill="#D02A2B"/>
	<ellipse cx="162.5" cy="83.4189" rx="2.5" ry="2.49316" fill="#D02A2B"/>
	<ellipse cx="162.5" cy="97.3806" rx="2.5" ry="2.49341" fill="#D02A2B"/>
	<ellipse cx="174.5" cy="69.4573" rx="2.5" ry="2.49292" fill="#D02A2B"/>
	<ellipse cx="174.5" cy="83.4189" rx="2.5" ry="2.49316" fill="#D02A2B"/>
	<ellipse cx="174.5" cy="97.3806" rx="2.5" ry="2.49341" fill="#D02A2B"/>
	<ellipse cx="187.5" cy="56.4929" rx="2.5" ry="2.49292" fill="#D02A2B"/>
	<ellipse cx="199.5" cy="56.4929" rx="2.5" ry="2.49292" fill="#D02A2B"/>
	<ellipse cx="211.5" cy="56.4929" rx="2.5" ry="2.49292" fill="#D02A2B"/>
	<ellipse cx="187.5" cy="69.4573" rx="2.5" ry="2.49292" fill="#D02A2B"/>
	<ellipse cx="187.5" cy="83.4189" rx="2.5" ry="2.49316" fill="#D02A2B"/>
	<ellipse cx="187.5" cy="97.3806" rx="2.5" ry="2.49341" fill="#D02A2B"/>
	<ellipse cx="199.5" cy="69.4573" rx="2.5" ry="2.49292" fill="#D02A2B"/>
	<ellipse cx="199.5" cy="83.4189" rx="2.5" ry="2.49316" fill="#D02A2B"/>
	<ellipse cx="199.5" cy="97.3806" rx="2.5" ry="2.49341" fill="#D02A2B"/>
	<ellipse cx="211.5" cy="69.4573" rx="2.5" ry="2.49292" fill="#D02A2B"/>
	<ellipse cx="211.5" cy="83.4189" rx="2.5" ry="2.49316" fill="#D02A2B"/>
	<ellipse cx="211.5" cy="97.3806" rx="2.5" ry="2.49341" fill="#D02A2B"/>
	<ellipse cx="223.5" cy="56.4929" rx="2.5" ry="2.49292" fill="#D02A2B"/>
	<ellipse cx="235.5" cy="56.4929" rx="2.5" ry="2.49292" fill="#D02A2B"/>
	<ellipse cx="247.5" cy="56.4929" rx="2.5" ry="2.49292" fill="#D02A2B"/>
	<ellipse cx="223.5" cy="69.4573" rx="2.5" ry="2.49292" fill="#D02A2B"/>
	<ellipse cx="223.5" cy="83.4189" rx="2.5" ry="2.49316" fill="#D02A2B"/>
	<ellipse cx="223.5" cy="97.3806" rx="2.5" ry="2.49341" fill="#D02A2B"/>
	<ellipse cx="235.5" cy="69.4573" rx="2.5" ry="2.49292" fill="#D02A2B"/>
	<ellipse cx="235.5" cy="83.4189" rx="2.5" ry="2.49316" fill="#D02A2B"/>
	<ellipse cx="235.5" cy="97.3806" rx="2.5" ry="2.49341" fill="#D02A2B"/>
	<ellipse cx="247.5" cy="69.4573" rx="2.5" ry="2.49292" fill="#D02A2B"/>
	<ellipse cx="247.5" cy="83.4189" rx="2.5" ry="2.49316" fill="#D02A2B"/>
	<ellipse cx="247.5" cy="97.3806" rx="2.5" ry="2.49341" fill="#D02A2B"/>
	<ellipse cx="260.5" cy="56.4929" rx="2.5" ry="2.49292" fill="#D02A2B"/>
	<ellipse cx="272.5" cy="56.4929" rx="2.5" ry="2.49292" fill="#D02A2B"/>
	<ellipse cx="284.5" cy="56.4929" rx="2.5" ry="2.49292" fill="#D02A2B"/>
	<ellipse cx="260.5" cy="69.4573" rx="2.5" ry="2.49292" fill="#D02A2B"/>
	<ellipse cx="260.5" cy="83.4189" rx="2.5" ry="2.49316" fill="#D02A2B"/>
	<ellipse cx="260.5" cy="97.3806" rx="2.5" ry="2.49341" fill="#D02A2B"/>
	<ellipse cx="272.5" cy="69.4573" rx="2.5" ry="2.49292" fill="#D02A2B"/>
	<ellipse cx="272.5" cy="83.4189" rx="2.5" ry="2.49316" fill="#D02A2B"/>
	<ellipse cx="272.5" cy="97.3806" rx="2.5" ry="2.49341" fill="#D02A2B"/>
	<ellipse cx="284.5" cy="69.4573" rx="2.5" ry="2.49292" fill="#D02A2B"/>
	<ellipse cx="284.5" cy="83.4189" rx="2.5" ry="2.49316" fill="#D02A2B"/>
	<ellipse cx="284.5" cy="97.3806" rx="2.5" ry="2.49341" fill="#D02A2B"/>
	<ellipse cx="297.5" cy="56.4929" rx="2.5" ry="2.49292" fill="#D02A2B"/>
	<ellipse cx="309.5" cy="56.4929" rx="2.5" ry="2.49292" fill="#D02A2B"/>
	<ellipse cx="321.5" cy="56.4929" rx="2.5" ry="2.49292" fill="#D02A2B"/>
	<ellipse cx="297.5" cy="69.4573" rx="2.5" ry="2.49292" fill="#D02A2B"/>
	<ellipse cx="297.5" cy="83.4189" rx="2.5" ry="2.49316" fill="#D02A2B"/>
	<ellipse cx="297.5" cy="97.3806" rx="2.5" ry="2.49341" fill="#D02A2B"/>
	<ellipse cx="309.5" cy="69.4573" rx="2.5" ry="2.49292" fill="#D02A2B"/>
	<ellipse cx="309.5" cy="83.4189" rx="2.5" ry="2.49316" fill="#D02A2B"/>
	<ellipse cx="309.5" cy="97.3806" rx="2.5" ry="2.49341" fill="#D02A2B"/>
	<ellipse cx="321.5" cy="69.4573" rx="2.5" ry="2.49292" fill="#D02A2B"/>
	<ellipse cx="321.5" cy="83.4189" rx="2.5" ry="2.49316" fill="#D02A2B"/>
	<ellipse cx="321.5" cy="97.3806" rx="2.5" ry="2.49341" fill="#D02A2B"/>
	<ellipse cx="334.5" cy="56.4929" rx="2.5" ry="2.49292" fill="#D02A2B"/>
	<ellipse cx="346.5" cy="56.4929" rx="2.5" ry="2.49292" fill="#D02A2B"/>
	<ellipse cx="358.5" cy="56.4929" rx="2.5" ry="2.49292" fill="#D02A2B"/>
	<ellipse cx="334.5" cy="69.4573" rx="2.5" ry="2.49292" fill="#D02A2B"/>
	<ellipse cx="334.5" cy="83.4189" rx="2.5" ry="2.49316" fill="#D02A2B"/>
	<ellipse cx="334.5" cy="97.3806" rx="2.5" ry="2.49341" fill="#D02A2B"/>
	<ellipse cx="346.5" cy="69.4573" rx="2.5" ry="2.49292" fill="#D02A2B"/>
	<ellipse cx="346.5" cy="83.4189" rx="2.5" ry="2.49316" fill="#D02A2B"/>
	<ellipse cx="346.5" cy="97.3806" rx="2.5" ry="2.49341" fill="#D02A2B"/>
	<ellipse cx="358.5" cy="69.4573" rx="2.5" ry="2.49292" fill="#D02A2B"/>
	<ellipse cx="358.5" cy="83.4189" rx="2.5" ry="2.49316" fill="#D02A2B"/>
	<ellipse cx="358.5" cy="97.3806" rx="2.5" ry="2.49341" fill="#D02A2B"/>
	<ellipse cx="371.5" cy="56.4929" rx="2.5" ry="2.49292" fill="#D02A2B"/>
	<ellipse cx="383.5" cy="56.4929" rx="2.5" ry="2.49292" fill="#D02A2B"/>
	<ellipse cx="395.5" cy="56.4929" rx="2.5" ry="2.49292" fill="#D02A2B"/>
	<ellipse cx="371.5" cy="69.4573" rx="2.5" ry="2.49292" fill="#D02A2B"/>
	<ellipse cx="371.5" cy="83.4189" rx="2.5" ry="2.49316" fill="#D02A2B"/>
	<ellipse cx="371.5" cy="97.3806" rx="2.5" ry="2.49341" fill="#D02A2B"/>
	<ellipse cx="383.5" cy="69.4573" rx="2.5" ry="2.49292" fill="#D02A2B"/>
	<ellipse cx="383.5" cy="83.4189" rx="2.5" ry="2.49316" fill="#D02A2B"/>
	<ellipse cx="383.5" cy="97.3806" rx="2.5" ry="2.49341" fill="#D02A2B"/>
	<ellipse cx="395.5" cy="69.4573" rx="2.5" ry="2.49292" fill="#D02A2B"/>
	<ellipse cx="395.5" cy="83.4189" rx="2.5" ry="2.49316" fill="#D02A2B"/>
	<ellipse cx="395.5" cy="97.3806" rx="2.5" ry="2.49341" fill="#D02A2B"/>
	<ellipse cx="408.5" cy="56.4929" rx="2.5" ry="2.49292" fill="#D02A2B"/>
	<ellipse cx="420.5" cy="56.4929" rx="2.5" ry="2.49292" fill="#D02A2B"/>
	<ellipse cx="432.5" cy="56.4929" rx="2.5" ry="2.49292" fill="#D02A2B"/>
	<ellipse cx="408.5" cy="69.4573" rx="2.5" ry="2.49292" fill="#D02A2B"/>
	<ellipse cx="408.5" cy="83.4189" rx="2.5" ry="2.49316" fill="#D02A2B"/>
	<ellipse cx="408.5" cy="97.3806" rx="2.5" ry="2.49341" fill="#D02A2B"/>
	<ellipse cx="420.5" cy="69.4573" rx="2.5" ry="2.49292" fill="#D02A2B"/>
	<ellipse cx="420.5" cy="83.4189" rx="2.5" ry="2.49316" fill="#D02A2B"/>
	<ellipse cx="420.5" cy="97.3806" rx="2.5" ry="2.49341" fill="#D02A2B"/>
	<ellipse cx="432.5" cy="69.4573" rx="2.5" ry="2.49292" fill="#D02A2B"/>
	<ellipse cx="432.5" cy="83.4189" rx="2.5" ry="2.49316" fill="#D02A2B"/>
	<ellipse cx="432.5" cy="97.3806" rx="2.5" ry="2.49341" fill="#D02A2B"/>
</svg>
