<svg width="230" height="50" viewBox="0 0 230 50" fill="none" xmlns="http://www.w3.org/2000/svg">
	<circle cx="227.5" cy="47.5" r="2.5" transform="rotate(90 227.5 47.5)" fill="#D02A2B"/>
	<circle cx="212.5" cy="47.5" r="2.5" transform="rotate(90 212.5 47.5)" fill="#D02A2B"/>
	<circle cx="227.5" cy="32.5" r="2.5" transform="rotate(90 227.5 32.5)" fill="#D02A2B"/>
	<circle cx="227.5" cy="17.5" r="2.5" transform="rotate(90 227.5 17.5)" fill="#D02A2B"/>
	<circle cx="227.5" cy="2.5" r="2.5" transform="rotate(90 227.5 2.5)" fill="#D02A2B"/>
	<circle cx="212.5" cy="32.5" r="2.5" transform="rotate(90 212.5 32.5)" fill="#D02A2B"/>
	<circle cx="212.5" cy="17.5" r="2.5" transform="rotate(90 212.5 17.5)" fill="#D02A2B"/>
	<circle cx="212.5" cy="2.5" r="2.5" transform="rotate(90 212.5 2.5)" fill="#D02A2B"/>
	<circle cx="197.5" cy="47.5" r="2.5" transform="rotate(90 197.5 47.5)" fill="#D02A2B"/>
	<circle cx="182.5" cy="47.5" r="2.5" transform="rotate(90 182.5 47.5)" fill="#D02A2B"/>
	<circle cx="167.5" cy="47.5" r="2.5" transform="rotate(90 167.5 47.5)" fill="#D02A2B"/>
	<circle cx="197.5" cy="32.5" r="2.5" transform="rotate(90 197.5 32.5)" fill="#D02A2B"/>
	<circle cx="197.5" cy="17.5" r="2.5" transform="rotate(90 197.5 17.5)" fill="#D02A2B"/>
	<circle cx="197.5" cy="2.5" r="2.5" transform="rotate(90 197.5 2.5)" fill="#D02A2B"/>
	<circle cx="182.5" cy="32.5" r="2.5" transform="rotate(90 182.5 32.5)" fill="#D02A2B"/>
	<circle cx="182.5" cy="17.5" r="2.5" transform="rotate(90 182.5 17.5)" fill="#D02A2B"/>
	<circle cx="182.5" cy="2.5" r="2.5" transform="rotate(90 182.5 2.5)" fill="#D02A2B"/>
	<circle cx="167.5" cy="32.5" r="2.5" transform="rotate(90 167.5 32.5)" fill="#D02A2B"/>
	<circle cx="167.5" cy="17.5" r="2.5" transform="rotate(90 167.5 17.5)" fill="#D02A2B"/>
	<circle cx="167.5" cy="2.5" r="2.5" transform="rotate(90 167.5 2.5)" fill="#D02A2B"/>
	<circle cx="152.5" cy="47.5" r="2.5" transform="rotate(90 152.5 47.5)" fill="#D02A2B"/>
	<circle cx="137.5" cy="47.5" r="2.5" transform="rotate(90 137.5 47.5)" fill="#D02A2B"/>
	<circle cx="122.5" cy="47.5" r="2.5" transform="rotate(90 122.5 47.5)" fill="#D02A2B"/>
	<circle cx="152.5" cy="32.5" r="2.5" transform="rotate(90 152.5 32.5)" fill="#D02A2B"/>
	<circle cx="152.5" cy="17.5" r="2.5" transform="rotate(90 152.5 17.5)" fill="#D02A2B"/>
	<circle cx="152.5" cy="2.5" r="2.5" transform="rotate(90 152.5 2.5)" fill="#D02A2B"/>
	<circle cx="137.5" cy="32.5" r="2.5" transform="rotate(90 137.5 32.5)" fill="#D02A2B"/>
	<circle cx="137.5" cy="17.5" r="2.5" transform="rotate(90 137.5 17.5)" fill="#D02A2B"/>
	<circle cx="137.5" cy="2.5" r="2.5" transform="rotate(90 137.5 2.5)" fill="#D02A2B"/>
	<circle cx="122.5" cy="32.5" r="2.5" transform="rotate(90 122.5 32.5)" fill="#D02A2B"/>
	<circle cx="122.5" cy="17.5" r="2.5" transform="rotate(90 122.5 17.5)" fill="#D02A2B"/>
	<circle cx="122.5" cy="2.5" r="2.5" transform="rotate(90 122.5 2.5)" fill="#D02A2B"/>
	<circle cx="107.5" cy="47.5" r="2.5" transform="rotate(90 107.5 47.5)" fill="#D02A2B"/>
	<circle cx="92.5" cy="47.5" r="2.5" transform="rotate(90 92.5 47.5)" fill="#D02A2B"/>
	<circle cx="77.5" cy="47.5" r="2.5" transform="rotate(90 77.5 47.5)" fill="#D02A2B"/>
	<circle cx="107.5" cy="32.5" r="2.5" transform="rotate(90 107.5 32.5)" fill="#D02A2B"/>
	<circle cx="107.5" cy="17.5" r="2.5" transform="rotate(90 107.5 17.5)" fill="#D02A2B"/>
	<circle cx="107.5" cy="2.5" r="2.5" transform="rotate(90 107.5 2.5)" fill="#D02A2B"/>
	<circle cx="92.5" cy="32.5" r="2.5" transform="rotate(90 92.5 32.5)" fill="#D02A2B"/>
	<circle cx="92.5" cy="17.5" r="2.5" transform="rotate(90 92.5 17.5)" fill="#D02A2B"/>
	<circle cx="92.5" cy="2.5" r="2.5" transform="rotate(90 92.5 2.5)" fill="#D02A2B"/>
	<circle cx="77.5" cy="32.5" r="2.5" transform="rotate(90 77.5 32.5)" fill="#D02A2B"/>
	<circle cx="77.5" cy="17.5" r="2.5" transform="rotate(90 77.5 17.5)" fill="#D02A2B"/>
	<circle cx="77.5" cy="2.5" r="2.5" transform="rotate(90 77.5 2.5)" fill="#D02A2B"/>
	<circle cx="62.5" cy="47.5" r="2.5" transform="rotate(90 62.5 47.5)" fill="#D02A2B"/>
	<circle cx="47.5" cy="47.5" r="2.5" transform="rotate(90 47.5 47.5)" fill="#D02A2B"/>
	<circle cx="32.5" cy="47.5" r="2.5" transform="rotate(90 32.5 47.5)" fill="#D02A2B"/>
	<circle cx="62.5" cy="32.5" r="2.5" transform="rotate(90 62.5 32.5)" fill="#D02A2B"/>
	<circle cx="62.5" cy="17.5" r="2.5" transform="rotate(90 62.5 17.5)" fill="#D02A2B"/>
	<circle cx="62.5" cy="2.5" r="2.5" transform="rotate(90 62.5 2.5)" fill="#D02A2B"/>
	<circle cx="47.5" cy="32.5" r="2.5" transform="rotate(90 47.5 32.5)" fill="#D02A2B"/>
	<circle cx="47.5" cy="17.5" r="2.5" transform="rotate(90 47.5 17.5)" fill="#D02A2B"/>
	<circle cx="47.5" cy="2.5" r="2.5" transform="rotate(90 47.5 2.5)" fill="#D02A2B"/>
	<circle cx="32.5" cy="32.5" r="2.5" transform="rotate(90 32.5 32.5)" fill="#D02A2B"/>
	<circle cx="32.5" cy="17.5" r="2.5" transform="rotate(90 32.5 17.5)" fill="#D02A2B"/>
	<circle cx="32.5" cy="2.5" r="2.5" transform="rotate(90 32.5 2.5)" fill="#D02A2B"/>
	<circle cx="17.5" cy="47.5" r="2.5" transform="rotate(90 17.5 47.5)" fill="#D02A2B"/>
	<circle cx="2.5" cy="47.5" r="2.5" transform="rotate(90 2.5 47.5)" fill="#D02A2B"/>
	<circle cx="17.5" cy="32.5" r="2.5" transform="rotate(90 17.5 32.5)" fill="#D02A2B"/>
	<circle cx="17.5" cy="17.5" r="2.5" transform="rotate(90 17.5 17.5)" fill="#D02A2B"/>
	<circle cx="17.5" cy="2.5" r="2.5" transform="rotate(90 17.5 2.5)" fill="#D02A2B"/>
	<circle cx="2.5" cy="32.5" r="2.5" transform="rotate(90 2.5 32.5)" fill="#D02A2B"/>
	<circle cx="2.5" cy="17.5" r="2.5" transform="rotate(90 2.5 17.5)" fill="#D02A2B"/>
	<circle cx="2.5" cy="2.5" r="2.5" transform="rotate(90 2.5 2.5)" fill="#D02A2B"/>
</svg>
