<svg width="29" height="363" viewBox="0 0 29 363" fill="none" xmlns="http://www.w3.org/2000/svg">
	<circle cx="2.5" cy="2.5" r="2.5" fill="#D02A2B"/>
	<circle cx="2.5" cy="16.5" r="2.5" fill="#D02A2B"/>
	<circle cx="2.5" cy="30.5" r="2.5" fill="#D02A2B"/>
	<circle cx="2.5" cy="44.5" r="2.5" fill="#D02A2B"/>
	<circle cx="2.5" cy="58.5" r="2.5" fill="#D02A2B"/>
	<circle cx="2.5" cy="71.5" r="2.5" fill="#D02A2B"/>
	<circle cx="2.5" cy="85.5" r="2.5" fill="#D02A2B"/>
	<circle cx="2.5" cy="99.5" r="2.5" fill="#D02A2B"/>
	<circle cx="14.5" cy="2.5" r="2.5" fill="#D02A2B"/>
	<circle cx="14.5" cy="16.5" r="2.5" fill="#D02A2B"/>
	<circle cx="14.5" cy="30.5" r="2.5" fill="#D02A2B"/>
	<circle cx="14.5" cy="44.5" r="2.5" fill="#D02A2B"/>
	<circle cx="14.5" cy="58.5" r="2.5" fill="#D02A2B"/>
	<circle cx="14.5" cy="71.5" r="2.5" fill="#D02A2B"/>
	<circle cx="14.5" cy="85.5" r="2.5" fill="#D02A2B"/>
	<circle cx="14.5" cy="99.5" r="2.5" fill="#D02A2B"/>
	<circle cx="26.5" cy="2.5" r="2.5" fill="#D02A2B"/>
	<circle cx="26.5" cy="16.5" r="2.5" fill="#D02A2B"/>
	<circle cx="26.5" cy="30.5" r="2.5" fill="#D02A2B"/>
	<circle cx="26.5" cy="44.5" r="2.5" fill="#D02A2B"/>
	<circle cx="26.5" cy="58.5" r="2.5" fill="#D02A2B"/>
	<circle cx="26.5" cy="71.5" r="2.5" fill="#D02A2B"/>
	<circle cx="26.5" cy="85.5" r="2.5" fill="#D02A2B"/>
	<circle cx="26.5" cy="99.5" r="2.5" fill="#D02A2B"/>
	<circle cx="2.5" cy="112.5" r="2.5" fill="#D02A2B"/>
	<circle cx="2.5" cy="126.5" r="2.5" fill="#D02A2B"/>
	<circle cx="2.5" cy="140.5" r="2.5" fill="#D02A2B"/>
	<circle cx="2.5" cy="154.5" r="2.5" fill="#D02A2B"/>
	<circle cx="2.5" cy="168.5" r="2.5" fill="#D02A2B"/>
	<circle cx="2.5" cy="181.5" r="2.5" fill="#D02A2B"/>
	<circle cx="2.5" cy="195.5" r="2.5" fill="#D02A2B"/>
	<circle cx="2.5" cy="209.5" r="2.5" fill="#D02A2B"/>
	<circle cx="14.5" cy="112.5" r="2.5" fill="#D02A2B"/>
	<circle cx="14.5" cy="126.5" r="2.5" fill="#D02A2B"/>
	<circle cx="14.5" cy="140.5" r="2.5" fill="#D02A2B"/>
	<circle cx="14.5" cy="154.5" r="2.5" fill="#D02A2B"/>
	<circle cx="14.5" cy="168.5" r="2.5" fill="#D02A2B"/>
	<circle cx="14.5" cy="181.5" r="2.5" fill="#D02A2B"/>
	<circle cx="14.5" cy="195.5" r="2.5" fill="#D02A2B"/>
	<circle cx="14.5" cy="209.5" r="2.5" fill="#D02A2B"/>
	<circle cx="26.5" cy="112.5" r="2.5" fill="#D02A2B"/>
	<circle cx="26.5" cy="126.5" r="2.5" fill="#D02A2B"/>
	<circle cx="26.5" cy="140.5" r="2.5" fill="#D02A2B"/>
	<circle cx="26.5" cy="154.5" r="2.5" fill="#D02A2B"/>
	<circle cx="26.5" cy="168.5" r="2.5" fill="#D02A2B"/>
	<circle cx="26.5" cy="181.5" r="2.5" fill="#D02A2B"/>
	<circle cx="26.5" cy="195.5" r="2.5" fill="#D02A2B"/>
	<circle cx="26.5" cy="209.5" r="2.5" fill="#D02A2B"/>
	<circle cx="2.5" cy="222.5" r="2.5" fill="#D02A2B"/>
	<circle cx="2.5" cy="236.5" r="2.5" fill="#D02A2B"/>
	<circle cx="2.5" cy="250.5" r="2.5" fill="#D02A2B"/>
	<circle cx="2.5" cy="264.5" r="2.5" fill="#D02A2B"/>
	<circle cx="2.5" cy="278.5" r="2.5" fill="#D02A2B"/>
	<circle cx="2.5" cy="291.5" r="2.5" fill="#D02A2B"/>
	<circle cx="2.5" cy="305.5" r="2.5" fill="#D02A2B"/>
	<circle cx="2.5" cy="319.5" r="2.5" fill="#D02A2B"/>
	<circle cx="14.5" cy="222.5" r="2.5" fill="#D02A2B"/>
	<circle cx="14.5" cy="236.5" r="2.5" fill="#D02A2B"/>
	<circle cx="14.5" cy="250.5" r="2.5" fill="#D02A2B"/>
	<circle cx="14.5" cy="264.5" r="2.5" fill="#D02A2B"/>
	<circle cx="14.5" cy="278.5" r="2.5" fill="#D02A2B"/>
	<circle cx="14.5" cy="291.5" r="2.5" fill="#D02A2B"/>
	<circle cx="14.5" cy="305.5" r="2.5" fill="#D02A2B"/>
	<circle cx="14.5" cy="319.5" r="2.5" fill="#D02A2B"/>
	<circle cx="26.5" cy="222.5" r="2.5" fill="#D02A2B"/>
	<circle cx="26.5" cy="236.5" r="2.5" fill="#D02A2B"/>
	<circle cx="26.5" cy="250.5" r="2.5" fill="#D02A2B"/>
	<circle cx="26.5" cy="264.5" r="2.5" fill="#D02A2B"/>
	<circle cx="26.5" cy="278.5" r="2.5" fill="#D02A2B"/>
	<circle cx="26.5" cy="291.5" r="2.5" fill="#D02A2B"/>
	<circle cx="26.5" cy="305.5" r="2.5" fill="#D02A2B"/>
	<circle cx="26.5" cy="319.5" r="2.5" fill="#D02A2B"/>
	<circle cx="2.5" cy="332.5" r="2.5" fill="#D02A2B"/>
	<circle cx="2.5" cy="346.5" r="2.5" fill="#D02A2B"/>
	<circle cx="2.5" cy="360.5" r="2.5" fill="#D02A2B"/>
	<circle cx="14.5" cy="332.5" r="2.5" fill="#D02A2B"/>
	<circle cx="14.5" cy="346.5" r="2.5" fill="#D02A2B"/>
	<circle cx="14.5" cy="360.5" r="2.5" fill="#D02A2B"/>
	<circle cx="26.5" cy="332.5" r="2.5" fill="#D02A2B"/>
	<circle cx="26.5" cy="346.5" r="2.5" fill="#D02A2B"/>
	<circle cx="26.5" cy="360.5" r="2.5" fill="#D02A2B"/>
</svg>
