<svg width="29" height="225" viewBox="0 0 29 225" fill="none" xmlns="http://www.w3.org/2000/svg">
	<circle cx="2.5" cy="2.5" r="2.5" fill="#D02A2B"/>
	<circle cx="2.5" cy="16.5" r="2.5" fill="#D02A2B"/>
	<circle cx="2.5" cy="30.5" r="2.5" fill="#D02A2B"/>
	<circle cx="2.5" cy="43.5" r="2.5" fill="#D02A2B"/>
	<circle cx="2.5" cy="57.5" r="2.5" fill="#D02A2B"/>
	<circle cx="2.5" cy="71.5" r="2.5" fill="#D02A2B"/>
	<circle cx="14.5" cy="2.5" r="2.5" fill="#D02A2B"/>
	<circle cx="14.5" cy="16.5" r="2.5" fill="#D02A2B"/>
	<circle cx="14.5" cy="30.5" r="2.5" fill="#D02A2B"/>
	<circle cx="14.5" cy="43.5" r="2.5" fill="#D02A2B"/>
	<circle cx="14.5" cy="57.5" r="2.5" fill="#D02A2B"/>
	<circle cx="14.5" cy="71.5" r="2.5" fill="#D02A2B"/>
	<circle cx="26.5" cy="2.5" r="2.5" fill="#D02A2B"/>
	<circle cx="26.5" cy="16.5" r="2.5" fill="#D02A2B"/>
	<circle cx="26.5" cy="30.5" r="2.5" fill="#D02A2B"/>
	<circle cx="26.5" cy="43.5" r="2.5" fill="#D02A2B"/>
	<circle cx="26.5" cy="57.5" r="2.5" fill="#D02A2B"/>
	<circle cx="26.5" cy="71.5" r="2.5" fill="#D02A2B"/>
	<circle cx="2.5" cy="84.5" r="2.5" fill="#D02A2B"/>
	<circle cx="2.5" cy="98.5" r="2.5" fill="#D02A2B"/>
	<circle cx="2.5" cy="112.5" r="2.5" fill="#D02A2B"/>
	<circle cx="2.5" cy="126.5" r="2.5" fill="#D02A2B"/>
	<circle cx="2.5" cy="140.5" r="2.5" fill="#D02A2B"/>
	<circle cx="2.5" cy="153.5" r="2.5" fill="#D02A2B"/>
	<circle cx="2.5" cy="167.5" r="2.5" fill="#D02A2B"/>
	<circle cx="2.5" cy="181.5" r="2.5" fill="#D02A2B"/>
	<circle cx="14.5" cy="84.5" r="2.5" fill="#D02A2B"/>
	<circle cx="14.5" cy="98.5" r="2.5" fill="#D02A2B"/>
	<circle cx="14.5" cy="112.5" r="2.5" fill="#D02A2B"/>
	<circle cx="14.5" cy="126.5" r="2.5" fill="#D02A2B"/>
	<circle cx="14.5" cy="140.5" r="2.5" fill="#D02A2B"/>
	<circle cx="14.5" cy="153.5" r="2.5" fill="#D02A2B"/>
	<circle cx="14.5" cy="167.5" r="2.5" fill="#D02A2B"/>
	<circle cx="14.5" cy="181.5" r="2.5" fill="#D02A2B"/>
	<circle cx="26.5" cy="84.5" r="2.5" fill="#D02A2B"/>
	<circle cx="26.5" cy="98.5" r="2.5" fill="#D02A2B"/>
	<circle cx="26.5" cy="112.5" r="2.5" fill="#D02A2B"/>
	<circle cx="26.5" cy="126.5" r="2.5" fill="#D02A2B"/>
	<circle cx="26.5" cy="140.5" r="2.5" fill="#D02A2B"/>
	<circle cx="26.5" cy="153.5" r="2.5" fill="#D02A2B"/>
	<circle cx="26.5" cy="167.5" r="2.5" fill="#D02A2B"/>
	<circle cx="26.5" cy="181.5" r="2.5" fill="#D02A2B"/>
	<circle cx="2.5" cy="194.5" r="2.5" fill="#D02A2B"/>
	<circle cx="2.5" cy="208.5" r="2.5" fill="#D02A2B"/>
	<circle cx="2.5" cy="222.5" r="2.5" fill="#D02A2B"/>
	<circle cx="14.5" cy="194.5" r="2.5" fill="#D02A2B"/>
	<circle cx="14.5" cy="208.5" r="2.5" fill="#D02A2B"/>
	<circle cx="14.5" cy="222.5" r="2.5" fill="#D02A2B"/>
	<circle cx="26.5" cy="194.5" r="2.5" fill="#D02A2B"/>
	<circle cx="26.5" cy="208.5" r="2.5" fill="#D02A2B"/>
	<circle cx="26.5" cy="222.5" r="2.5" fill="#D02A2B"/>
</svg>
