<svg width="436" height="100" viewBox="0 0 436 100" fill="none" xmlns="http://www.w3.org/2000/svg">
	<ellipse cx="224.5" cy="2.49292" rx="2.5" ry="2.49292" fill="#D02A2B"/>
	<ellipse cx="236.5" cy="2.49292" rx="2.5" ry="2.49292" fill="#D02A2B"/>
	<ellipse cx="248.5" cy="2.49292" rx="2.5" ry="2.49292" fill="#D02A2B"/>
	<ellipse cx="224.5" cy="15.4573" rx="2.5" ry="2.49292" fill="#D02A2B"/>
	<ellipse cx="224.5" cy="29.4189" rx="2.5" ry="2.49316" fill="#D02A2B"/>
	<ellipse cx="224.5" cy="43.3806" rx="2.5" ry="2.49341" fill="#D02A2B"/>
	<ellipse cx="236.5" cy="15.4573" rx="2.5" ry="2.49292" fill="#D02A2B"/>
	<ellipse cx="236.5" cy="29.4189" rx="2.5" ry="2.49316" fill="#D02A2B"/>
	<ellipse cx="236.5" cy="43.3806" rx="2.5" ry="2.49341" fill="#D02A2B"/>
	<ellipse cx="248.5" cy="15.4573" rx="2.5" ry="2.49292" fill="#D02A2B"/>
	<ellipse cx="248.5" cy="29.4189" rx="2.5" ry="2.49316" fill="#D02A2B"/>
	<ellipse cx="248.5" cy="43.3806" rx="2.5" ry="2.49341" fill="#D02A2B"/>
	<ellipse cx="261.5" cy="2.49292" rx="2.5" ry="2.49292" fill="#D02A2B"/>
	<ellipse cx="273.5" cy="2.49292" rx="2.5" ry="2.49292" fill="#D02A2B"/>
	<ellipse cx="285.5" cy="2.49292" rx="2.5" ry="2.49292" fill="#D02A2B"/>
	<ellipse cx="261.5" cy="15.4573" rx="2.5" ry="2.49292" fill="#D02A2B"/>
	<ellipse cx="261.5" cy="29.4189" rx="2.5" ry="2.49316" fill="#D02A2B"/>
	<ellipse cx="261.5" cy="43.3806" rx="2.5" ry="2.49341" fill="#D02A2B"/>
	<ellipse cx="273.5" cy="15.4573" rx="2.5" ry="2.49292" fill="#D02A2B"/>
	<ellipse cx="273.5" cy="29.4189" rx="2.5" ry="2.49316" fill="#D02A2B"/>
	<ellipse cx="273.5" cy="43.3806" rx="2.5" ry="2.49341" fill="#D02A2B"/>
	<ellipse cx="285.5" cy="15.4573" rx="2.5" ry="2.49292" fill="#D02A2B"/>
	<ellipse cx="285.5" cy="29.4189" rx="2.5" ry="2.49316" fill="#D02A2B"/>
	<ellipse cx="285.5" cy="43.3806" rx="2.5" ry="2.49341" fill="#D02A2B"/>
	<ellipse cx="298.5" cy="2.49292" rx="2.5" ry="2.49292" fill="#D02A2B"/>
	<ellipse cx="310.5" cy="2.49292" rx="2.5" ry="2.49292" fill="#D02A2B"/>
	<ellipse cx="322.5" cy="2.49292" rx="2.5" ry="2.49292" fill="#D02A2B"/>
	<ellipse cx="298.5" cy="15.4573" rx="2.5" ry="2.49292" fill="#D02A2B"/>
	<ellipse cx="298.5" cy="29.4189" rx="2.5" ry="2.49316" fill="#D02A2B"/>
	<ellipse cx="298.5" cy="43.3806" rx="2.5" ry="2.49341" fill="#D02A2B"/>
	<ellipse cx="310.5" cy="15.4573" rx="2.5" ry="2.49292" fill="#D02A2B"/>
	<ellipse cx="310.5" cy="29.4189" rx="2.5" ry="2.49316" fill="#D02A2B"/>
	<ellipse cx="310.5" cy="43.3806" rx="2.5" ry="2.49341" fill="#D02A2B"/>
	<ellipse cx="322.5" cy="15.4573" rx="2.5" ry="2.49292" fill="#D02A2B"/>
	<ellipse cx="322.5" cy="29.4189" rx="2.5" ry="2.49316" fill="#D02A2B"/>
	<ellipse cx="322.5" cy="43.3806" rx="2.5" ry="2.49341" fill="#D02A2B"/>
	<ellipse cx="335.5" cy="2.49292" rx="2.5" ry="2.49292" fill="#D02A2B"/>
	<ellipse cx="347.5" cy="2.49292" rx="2.5" ry="2.49292" fill="#D02A2B"/>
	<ellipse cx="359.5" cy="2.49292" rx="2.5" ry="2.49292" fill="#D02A2B"/>
	<ellipse cx="335.5" cy="15.4573" rx="2.5" ry="2.49292" fill="#D02A2B"/>
	<ellipse cx="335.5" cy="29.4189" rx="2.5" ry="2.49316" fill="#D02A2B"/>
	<ellipse cx="335.5" cy="43.3806" rx="2.5" ry="2.49341" fill="#D02A2B"/>
	<ellipse cx="347.5" cy="15.4573" rx="2.5" ry="2.49292" fill="#D02A2B"/>
	<ellipse cx="347.5" cy="29.4189" rx="2.5" ry="2.49316" fill="#D02A2B"/>
	<ellipse cx="347.5" cy="43.3806" rx="2.5" ry="2.49341" fill="#D02A2B"/>
	<ellipse cx="359.5" cy="15.4573" rx="2.5" ry="2.49292" fill="#D02A2B"/>
	<ellipse cx="359.5" cy="29.4189" rx="2.5" ry="2.49316" fill="#D02A2B"/>
	<ellipse cx="359.5" cy="43.3806" rx="2.5" ry="2.49341" fill="#D02A2B"/>
	<ellipse cx="372.5" cy="2.49292" rx="2.5" ry="2.49292" fill="#D02A2B"/>
	<ellipse cx="384.5" cy="2.49292" rx="2.5" ry="2.49292" fill="#D02A2B"/>
	<ellipse cx="396.5" cy="2.49292" rx="2.5" ry="2.49292" fill="#D02A2B"/>
	<ellipse cx="372.5" cy="15.4573" rx="2.5" ry="2.49292" fill="#D02A2B"/>
	<ellipse cx="372.5" cy="29.4189" rx="2.5" ry="2.49316" fill="#D02A2B"/>
	<ellipse cx="372.5" cy="43.3806" rx="2.5" ry="2.49341" fill="#D02A2B"/>
	<ellipse cx="384.5" cy="15.4573" rx="2.5" ry="2.49292" fill="#D02A2B"/>
	<ellipse cx="384.5" cy="29.4189" rx="2.5" ry="2.49316" fill="#D02A2B"/>
	<ellipse cx="384.5" cy="43.3806" rx="2.5" ry="2.49341" fill="#D02A2B"/>
	<ellipse cx="396.5" cy="15.4573" rx="2.5" ry="2.49292" fill="#D02A2B"/>
	<ellipse cx="396.5" cy="29.4189" rx="2.5" ry="2.49316" fill="#D02A2B"/>
	<ellipse cx="396.5" cy="43.3806" rx="2.5" ry="2.49341" fill="#D02A2B"/>
	<ellipse cx="409.5" cy="2.49292" rx="2.5" ry="2.49292" fill="#D02A2B"/>
	<ellipse cx="421.5" cy="2.49292" rx="2.5" ry="2.49292" fill="#D02A2B"/>
	<ellipse cx="433.5" cy="2.49292" rx="2.5" ry="2.49292" fill="#D02A2B"/>
	<ellipse cx="409.5" cy="15.4573" rx="2.5" ry="2.49292" fill="#D02A2B"/>
	<ellipse cx="409.5" cy="29.4189" rx="2.5" ry="2.49316" fill="#D02A2B"/>
	<ellipse cx="409.5" cy="43.3806" rx="2.5" ry="2.49341" fill="#D02A2B"/>
	<ellipse cx="421.5" cy="15.4573" rx="2.5" ry="2.49292" fill="#D02A2B"/>
	<ellipse cx="421.5" cy="29.4189" rx="2.5" ry="2.49316" fill="#D02A2B"/>
	<ellipse cx="421.5" cy="43.3806" rx="2.5" ry="2.49341" fill="#D02A2B"/>
	<ellipse cx="433.5" cy="15.4573" rx="2.5" ry="2.49292" fill="#D02A2B"/>
	<ellipse cx="433.5" cy="29.4189" rx="2.5" ry="2.49316" fill="#D02A2B"/>
	<ellipse cx="433.5" cy="43.3806" rx="2.5" ry="2.49341" fill="#D02A2B"/>
	<ellipse cx="224.5" cy="56.4929" rx="2.5" ry="2.49292" fill="#D02A2B"/>
	<ellipse cx="236.5" cy="56.4929" rx="2.5" ry="2.49292" fill="#D02A2B"/>
	<ellipse cx="248.5" cy="56.4929" rx="2.5" ry="2.49292" fill="#D02A2B"/>
	<ellipse cx="224.5" cy="69.4573" rx="2.5" ry="2.49292" fill="#D02A2B"/>
	<ellipse cx="224.5" cy="83.4189" rx="2.5" ry="2.49316" fill="#D02A2B"/>
	<ellipse cx="224.5" cy="97.3806" rx="2.5" ry="2.49341" fill="#D02A2B"/>
	<ellipse cx="236.5" cy="69.4573" rx="2.5" ry="2.49292" fill="#D02A2B"/>
	<ellipse cx="236.5" cy="83.4189" rx="2.5" ry="2.49316" fill="#D02A2B"/>
	<ellipse cx="236.5" cy="97.3806" rx="2.5" ry="2.49341" fill="#D02A2B"/>
	<ellipse cx="248.5" cy="69.4573" rx="2.5" ry="2.49292" fill="#D02A2B"/>
	<ellipse cx="248.5" cy="83.4189" rx="2.5" ry="2.49316" fill="#D02A2B"/>
	<ellipse cx="248.5" cy="97.3806" rx="2.5" ry="2.49341" fill="#D02A2B"/>
	<ellipse cx="261.5" cy="56.4929" rx="2.5" ry="2.49292" fill="#D02A2B"/>
	<ellipse cx="273.5" cy="56.4929" rx="2.5" ry="2.49292" fill="#D02A2B"/>
	<ellipse cx="285.5" cy="56.4929" rx="2.5" ry="2.49292" fill="#D02A2B"/>
	<ellipse cx="261.5" cy="69.4573" rx="2.5" ry="2.49292" fill="#D02A2B"/>
	<ellipse cx="261.5" cy="83.4189" rx="2.5" ry="2.49316" fill="#D02A2B"/>
	<ellipse cx="261.5" cy="97.3806" rx="2.5" ry="2.49341" fill="#D02A2B"/>
	<ellipse cx="273.5" cy="69.4573" rx="2.5" ry="2.49292" fill="#D02A2B"/>
	<ellipse cx="273.5" cy="83.4189" rx="2.5" ry="2.49316" fill="#D02A2B"/>
	<ellipse cx="273.5" cy="97.3806" rx="2.5" ry="2.49341" fill="#D02A2B"/>
	<ellipse cx="285.5" cy="69.4573" rx="2.5" ry="2.49292" fill="#D02A2B"/>
	<ellipse cx="285.5" cy="83.4189" rx="2.5" ry="2.49316" fill="#D02A2B"/>
	<ellipse cx="285.5" cy="97.3806" rx="2.5" ry="2.49341" fill="#D02A2B"/>
	<ellipse cx="298.5" cy="56.4929" rx="2.5" ry="2.49292" fill="#D02A2B"/>
	<ellipse cx="310.5" cy="56.4929" rx="2.5" ry="2.49292" fill="#D02A2B"/>
	<ellipse cx="322.5" cy="56.4929" rx="2.5" ry="2.49292" fill="#D02A2B"/>
	<ellipse cx="298.5" cy="69.4573" rx="2.5" ry="2.49292" fill="#D02A2B"/>
	<ellipse cx="298.5" cy="83.4189" rx="2.5" ry="2.49316" fill="#D02A2B"/>
	<ellipse cx="298.5" cy="97.3806" rx="2.5" ry="2.49341" fill="#D02A2B"/>
	<ellipse cx="310.5" cy="69.4573" rx="2.5" ry="2.49292" fill="#D02A2B"/>
	<ellipse cx="310.5" cy="83.4189" rx="2.5" ry="2.49316" fill="#D02A2B"/>
	<ellipse cx="310.5" cy="97.3806" rx="2.5" ry="2.49341" fill="#D02A2B"/>
	<ellipse cx="322.5" cy="69.4573" rx="2.5" ry="2.49292" fill="#D02A2B"/>
	<ellipse cx="322.5" cy="83.4189" rx="2.5" ry="2.49316" fill="#D02A2B"/>
	<ellipse cx="322.5" cy="97.3806" rx="2.5" ry="2.49341" fill="#D02A2B"/>
	<ellipse cx="335.5" cy="56.4929" rx="2.5" ry="2.49292" fill="#D02A2B"/>
	<ellipse cx="347.5" cy="56.4929" rx="2.5" ry="2.49292" fill="#D02A2B"/>
	<ellipse cx="359.5" cy="56.4929" rx="2.5" ry="2.49292" fill="#D02A2B"/>
	<ellipse cx="335.5" cy="69.4573" rx="2.5" ry="2.49292" fill="#D02A2B"/>
	<ellipse cx="335.5" cy="83.4189" rx="2.5" ry="2.49316" fill="#D02A2B"/>
	<ellipse cx="335.5" cy="97.3806" rx="2.5" ry="2.49341" fill="#D02A2B"/>
	<ellipse cx="347.5" cy="69.4573" rx="2.5" ry="2.49292" fill="#D02A2B"/>
	<ellipse cx="347.5" cy="83.4189" rx="2.5" ry="2.49316" fill="#D02A2B"/>
	<ellipse cx="347.5" cy="97.3806" rx="2.5" ry="2.49341" fill="#D02A2B"/>
	<ellipse cx="359.5" cy="69.4573" rx="2.5" ry="2.49292" fill="#D02A2B"/>
	<ellipse cx="359.5" cy="83.4189" rx="2.5" ry="2.49316" fill="#D02A2B"/>
	<ellipse cx="359.5" cy="97.3806" rx="2.5" ry="2.49341" fill="#D02A2B"/>
	<ellipse cx="372.5" cy="56.4929" rx="2.5" ry="2.49292" fill="#D02A2B"/>
	<ellipse cx="384.5" cy="56.4929" rx="2.5" ry="2.49292" fill="#D02A2B"/>
	<ellipse cx="396.5" cy="56.4929" rx="2.5" ry="2.49292" fill="#D02A2B"/>
	<ellipse cx="372.5" cy="69.4573" rx="2.5" ry="2.49292" fill="#D02A2B"/>
	<ellipse cx="372.5" cy="83.4189" rx="2.5" ry="2.49316" fill="#D02A2B"/>
	<ellipse cx="372.5" cy="97.3806" rx="2.5" ry="2.49341" fill="#D02A2B"/>
	<ellipse cx="384.5" cy="69.4573" rx="2.5" ry="2.49292" fill="#D02A2B"/>
	<ellipse cx="384.5" cy="83.4189" rx="2.5" ry="2.49316" fill="#D02A2B"/>
	<ellipse cx="384.5" cy="97.3806" rx="2.5" ry="2.49341" fill="#D02A2B"/>
	<ellipse cx="396.5" cy="69.4573" rx="2.5" ry="2.49292" fill="#D02A2B"/>
	<ellipse cx="396.5" cy="83.4189" rx="2.5" ry="2.49316" fill="#D02A2B"/>
	<ellipse cx="396.5" cy="97.3806" rx="2.5" ry="2.49341" fill="#D02A2B"/>
	<ellipse cx="409.5" cy="56.4929" rx="2.5" ry="2.49292" fill="#D02A2B"/>
	<ellipse cx="421.5" cy="56.4929" rx="2.5" ry="2.49292" fill="#D02A2B"/>
	<ellipse cx="433.5" cy="56.4929" rx="2.5" ry="2.49292" fill="#D02A2B"/>
	<ellipse cx="409.5" cy="69.4573" rx="2.5" ry="2.49292" fill="#D02A2B"/>
	<ellipse cx="409.5" cy="83.4189" rx="2.5" ry="2.49316" fill="#D02A2B"/>
	<ellipse cx="409.5" cy="97.3806" rx="2.5" ry="2.49341" fill="#D02A2B"/>
	<ellipse cx="421.5" cy="69.4573" rx="2.5" ry="2.49292" fill="#D02A2B"/>
	<ellipse cx="421.5" cy="83.4189" rx="2.5" ry="2.49316" fill="#D02A2B"/>
	<ellipse cx="421.5" cy="97.3806" rx="2.5" ry="2.49341" fill="#D02A2B"/>
	<ellipse cx="433.5" cy="69.4573" rx="2.5" ry="2.49292" fill="#D02A2B"/>
	<ellipse cx="433.5" cy="83.4189" rx="2.5" ry="2.49316" fill="#D02A2B"/>
	<ellipse cx="433.5" cy="97.3806" rx="2.5" ry="2.49341" fill="#D02A2B"/>
	<ellipse cx="2.5" cy="2.49292" rx="2.5" ry="2.49292" fill="#D02A2B"/>
	<ellipse cx="14.5" cy="2.49292" rx="2.5" ry="2.49292" fill="#D02A2B"/>
	<ellipse cx="26.5" cy="2.49292" rx="2.5" ry="2.49292" fill="#D02A2B"/>
	<ellipse cx="2.5" cy="15.4573" rx="2.5" ry="2.49292" fill="#D02A2B"/>
	<ellipse cx="2.5" cy="29.4189" rx="2.5" ry="2.49316" fill="#D02A2B"/>
	<ellipse cx="2.5" cy="43.3806" rx="2.5" ry="2.49341" fill="#D02A2B"/>
	<ellipse cx="14.5" cy="15.4573" rx="2.5" ry="2.49292" fill="#D02A2B"/>
	<ellipse cx="14.5" cy="29.4189" rx="2.5" ry="2.49316" fill="#D02A2B"/>
	<ellipse cx="14.5" cy="43.3806" rx="2.5" ry="2.49341" fill="#D02A2B"/>
	<ellipse cx="26.5" cy="15.4573" rx="2.5" ry="2.49292" fill="#D02A2B"/>
	<ellipse cx="26.5" cy="29.4189" rx="2.5" ry="2.49316" fill="#D02A2B"/>
	<ellipse cx="26.5" cy="43.3806" rx="2.5" ry="2.49341" fill="#D02A2B"/>
	<ellipse cx="39.5" cy="2.49292" rx="2.5" ry="2.49292" fill="#D02A2B"/>
	<ellipse cx="51.5" cy="2.49292" rx="2.5" ry="2.49292" fill="#D02A2B"/>
	<ellipse cx="63.5" cy="2.49292" rx="2.5" ry="2.49292" fill="#D02A2B"/>
	<ellipse cx="39.5" cy="15.4573" rx="2.5" ry="2.49292" fill="#D02A2B"/>
	<ellipse cx="39.5" cy="29.4189" rx="2.5" ry="2.49316" fill="#D02A2B"/>
	<ellipse cx="39.5" cy="43.3806" rx="2.5" ry="2.49341" fill="#D02A2B"/>
	<ellipse cx="51.5" cy="15.4573" rx="2.5" ry="2.49292" fill="#D02A2B"/>
	<ellipse cx="51.5" cy="29.4189" rx="2.5" ry="2.49316" fill="#D02A2B"/>
	<ellipse cx="51.5" cy="43.3806" rx="2.5" ry="2.49341" fill="#D02A2B"/>
	<ellipse cx="63.5" cy="15.4573" rx="2.5" ry="2.49292" fill="#D02A2B"/>
	<ellipse cx="63.5" cy="29.4189" rx="2.5" ry="2.49316" fill="#D02A2B"/>
	<ellipse cx="63.5" cy="43.3806" rx="2.5" ry="2.49341" fill="#D02A2B"/>
	<ellipse cx="76.5" cy="2.49292" rx="2.5" ry="2.49292" fill="#D02A2B"/>
	<ellipse cx="88.5" cy="2.49292" rx="2.5" ry="2.49292" fill="#D02A2B"/>
	<ellipse cx="100.5" cy="2.49292" rx="2.5" ry="2.49292" fill="#D02A2B"/>
	<ellipse cx="76.5" cy="15.4573" rx="2.5" ry="2.49292" fill="#D02A2B"/>
	<ellipse cx="76.5" cy="29.4189" rx="2.5" ry="2.49316" fill="#D02A2B"/>
	<ellipse cx="76.5" cy="43.3806" rx="2.5" ry="2.49341" fill="#D02A2B"/>
	<ellipse cx="88.5" cy="15.4573" rx="2.5" ry="2.49292" fill="#D02A2B"/>
	<ellipse cx="88.5" cy="29.4189" rx="2.5" ry="2.49316" fill="#D02A2B"/>
	<ellipse cx="88.5" cy="43.3806" rx="2.5" ry="2.49341" fill="#D02A2B"/>
	<ellipse cx="100.5" cy="15.4573" rx="2.5" ry="2.49292" fill="#D02A2B"/>
	<ellipse cx="100.5" cy="29.4189" rx="2.5" ry="2.49316" fill="#D02A2B"/>
	<ellipse cx="100.5" cy="43.3806" rx="2.5" ry="2.49341" fill="#D02A2B"/>
	<ellipse cx="113.5" cy="2.49292" rx="2.5" ry="2.49292" fill="#D02A2B"/>
	<ellipse cx="125.5" cy="2.49292" rx="2.5" ry="2.49292" fill="#D02A2B"/>
	<ellipse cx="137.5" cy="2.49292" rx="2.5" ry="2.49292" fill="#D02A2B"/>
	<ellipse cx="113.5" cy="15.4573" rx="2.5" ry="2.49292" fill="#D02A2B"/>
	<ellipse cx="113.5" cy="29.4189" rx="2.5" ry="2.49316" fill="#D02A2B"/>
	<ellipse cx="113.5" cy="43.3806" rx="2.5" ry="2.49341" fill="#D02A2B"/>
	<ellipse cx="125.5" cy="15.4573" rx="2.5" ry="2.49292" fill="#D02A2B"/>
	<ellipse cx="125.5" cy="29.4189" rx="2.5" ry="2.49316" fill="#D02A2B"/>
	<ellipse cx="125.5" cy="43.3806" rx="2.5" ry="2.49341" fill="#D02A2B"/>
	<ellipse cx="137.5" cy="15.4573" rx="2.5" ry="2.49292" fill="#D02A2B"/>
	<ellipse cx="137.5" cy="29.4189" rx="2.5" ry="2.49316" fill="#D02A2B"/>
	<ellipse cx="137.5" cy="43.3806" rx="2.5" ry="2.49341" fill="#D02A2B"/>
	<ellipse cx="150.5" cy="2.49292" rx="2.5" ry="2.49292" fill="#D02A2B"/>
	<ellipse cx="162.5" cy="2.49292" rx="2.5" ry="2.49292" fill="#D02A2B"/>
	<ellipse cx="174.5" cy="2.49292" rx="2.5" ry="2.49292" fill="#D02A2B"/>
	<ellipse cx="150.5" cy="15.4573" rx="2.5" ry="2.49292" fill="#D02A2B"/>
	<ellipse cx="150.5" cy="29.4189" rx="2.5" ry="2.49316" fill="#D02A2B"/>
	<ellipse cx="150.5" cy="43.3806" rx="2.5" ry="2.49341" fill="#D02A2B"/>
	<ellipse cx="162.5" cy="15.4573" rx="2.5" ry="2.49292" fill="#D02A2B"/>
	<ellipse cx="162.5" cy="29.4189" rx="2.5" ry="2.49316" fill="#D02A2B"/>
	<ellipse cx="162.5" cy="43.3806" rx="2.5" ry="2.49341" fill="#D02A2B"/>
	<ellipse cx="174.5" cy="15.4573" rx="2.5" ry="2.49292" fill="#D02A2B"/>
	<ellipse cx="174.5" cy="29.4189" rx="2.5" ry="2.49316" fill="#D02A2B"/>
	<ellipse cx="174.5" cy="43.3806" rx="2.5" ry="2.49341" fill="#D02A2B"/>
	<ellipse cx="187.5" cy="2.49292" rx="2.5" ry="2.49292" fill="#D02A2B"/>
	<ellipse cx="199.5" cy="2.49292" rx="2.5" ry="2.49292" fill="#D02A2B"/>
	<ellipse cx="211.5" cy="2.49292" rx="2.5" ry="2.49292" fill="#D02A2B"/>
	<ellipse cx="187.5" cy="15.4573" rx="2.5" ry="2.49292" fill="#D02A2B"/>
	<ellipse cx="187.5" cy="29.4189" rx="2.5" ry="2.49316" fill="#D02A2B"/>
	<ellipse cx="187.5" cy="43.3806" rx="2.5" ry="2.49341" fill="#D02A2B"/>
	<ellipse cx="199.5" cy="15.4573" rx="2.5" ry="2.49292" fill="#D02A2B"/>
	<ellipse cx="199.5" cy="29.4189" rx="2.5" ry="2.49316" fill="#D02A2B"/>
	<ellipse cx="199.5" cy="43.3806" rx="2.5" ry="2.49341" fill="#D02A2B"/>
	<ellipse cx="211.5" cy="15.4573" rx="2.5" ry="2.49292" fill="#D02A2B"/>
	<ellipse cx="211.5" cy="29.4189" rx="2.5" ry="2.49316" fill="#D02A2B"/>
	<ellipse cx="211.5" cy="43.3806" rx="2.5" ry="2.49341" fill="#D02A2B"/>
	<ellipse cx="2.5" cy="56.4929" rx="2.5" ry="2.49292" fill="#D02A2B"/>
	<ellipse cx="14.5" cy="56.4929" rx="2.5" ry="2.49292" fill="#D02A2B"/>
	<ellipse cx="26.5" cy="56.4929" rx="2.5" ry="2.49292" fill="#D02A2B"/>
	<ellipse cx="2.5" cy="69.4573" rx="2.5" ry="2.49292" fill="#D02A2B"/>
	<ellipse cx="2.5" cy="83.4189" rx="2.5" ry="2.49316" fill="#D02A2B"/>
	<ellipse cx="2.5" cy="97.3806" rx="2.5" ry="2.49341" fill="#D02A2B"/>
	<ellipse cx="14.5" cy="69.4573" rx="2.5" ry="2.49292" fill="#D02A2B"/>
	<ellipse cx="14.5" cy="83.4189" rx="2.5" ry="2.49316" fill="#D02A2B"/>
	<ellipse cx="14.5" cy="97.3806" rx="2.5" ry="2.49341" fill="#D02A2B"/>
	<ellipse cx="26.5" cy="69.4573" rx="2.5" ry="2.49292" fill="#D02A2B"/>
	<ellipse cx="26.5" cy="83.4189" rx="2.5" ry="2.49316" fill="#D02A2B"/>
	<ellipse cx="26.5" cy="97.3806" rx="2.5" ry="2.49341" fill="#D02A2B"/>
	<ellipse cx="39.5" cy="56.4929" rx="2.5" ry="2.49292" fill="#D02A2B"/>
	<ellipse cx="51.5" cy="56.4929" rx="2.5" ry="2.49292" fill="#D02A2B"/>
	<ellipse cx="63.5" cy="56.4929" rx="2.5" ry="2.49292" fill="#D02A2B"/>
	<ellipse cx="39.5" cy="69.4573" rx="2.5" ry="2.49292" fill="#D02A2B"/>
	<ellipse cx="39.5" cy="83.4189" rx="2.5" ry="2.49316" fill="#D02A2B"/>
	<ellipse cx="39.5" cy="97.3806" rx="2.5" ry="2.49341" fill="#D02A2B"/>
	<ellipse cx="51.5" cy="69.4573" rx="2.5" ry="2.49292" fill="#D02A2B"/>
	<ellipse cx="51.5" cy="83.4189" rx="2.5" ry="2.49316" fill="#D02A2B"/>
	<ellipse cx="51.5" cy="97.3806" rx="2.5" ry="2.49341" fill="#D02A2B"/>
	<ellipse cx="63.5" cy="69.4573" rx="2.5" ry="2.49292" fill="#D02A2B"/>
	<ellipse cx="63.5" cy="83.4189" rx="2.5" ry="2.49316" fill="#D02A2B"/>
	<ellipse cx="63.5" cy="97.3806" rx="2.5" ry="2.49341" fill="#D02A2B"/>
	<ellipse cx="76.5" cy="56.4929" rx="2.5" ry="2.49292" fill="#D02A2B"/>
	<ellipse cx="88.5" cy="56.4929" rx="2.5" ry="2.49292" fill="#D02A2B"/>
	<ellipse cx="100.5" cy="56.4929" rx="2.5" ry="2.49292" fill="#D02A2B"/>
	<ellipse cx="76.5" cy="69.4573" rx="2.5" ry="2.49292" fill="#D02A2B"/>
	<ellipse cx="76.5" cy="83.4189" rx="2.5" ry="2.49316" fill="#D02A2B"/>
	<ellipse cx="76.5" cy="97.3806" rx="2.5" ry="2.49341" fill="#D02A2B"/>
	<ellipse cx="88.5" cy="69.4573" rx="2.5" ry="2.49292" fill="#D02A2B"/>
	<ellipse cx="88.5" cy="83.4189" rx="2.5" ry="2.49316" fill="#D02A2B"/>
	<ellipse cx="88.5" cy="97.3806" rx="2.5" ry="2.49341" fill="#D02A2B"/>
	<ellipse cx="100.5" cy="69.4573" rx="2.5" ry="2.49292" fill="#D02A2B"/>
	<ellipse cx="100.5" cy="83.4189" rx="2.5" ry="2.49316" fill="#D02A2B"/>
	<ellipse cx="100.5" cy="97.3806" rx="2.5" ry="2.49341" fill="#D02A2B"/>
	<ellipse cx="113.5" cy="56.4929" rx="2.5" ry="2.49292" fill="#D02A2B"/>
	<ellipse cx="125.5" cy="56.4929" rx="2.5" ry="2.49292" fill="#D02A2B"/>
	<ellipse cx="137.5" cy="56.4929" rx="2.5" ry="2.49292" fill="#D02A2B"/>
	<ellipse cx="113.5" cy="69.4573" rx="2.5" ry="2.49292" fill="#D02A2B"/>
	<ellipse cx="113.5" cy="83.4189" rx="2.5" ry="2.49316" fill="#D02A2B"/>
	<ellipse cx="113.5" cy="97.3806" rx="2.5" ry="2.49341" fill="#D02A2B"/>
	<ellipse cx="125.5" cy="69.4573" rx="2.5" ry="2.49292" fill="#D02A2B"/>
	<ellipse cx="125.5" cy="83.4189" rx="2.5" ry="2.49316" fill="#D02A2B"/>
	<ellipse cx="125.5" cy="97.3806" rx="2.5" ry="2.49341" fill="#D02A2B"/>
	<ellipse cx="137.5" cy="69.4573" rx="2.5" ry="2.49292" fill="#D02A2B"/>
	<ellipse cx="137.5" cy="83.4189" rx="2.5" ry="2.49316" fill="#D02A2B"/>
	<ellipse cx="137.5" cy="97.3806" rx="2.5" ry="2.49341" fill="#D02A2B"/>
	<ellipse cx="150.5" cy="56.4929" rx="2.5" ry="2.49292" fill="#D02A2B"/>
	<ellipse cx="162.5" cy="56.4929" rx="2.5" ry="2.49292" fill="#D02A2B"/>
	<ellipse cx="174.5" cy="56.4929" rx="2.5" ry="2.49292" fill="#D02A2B"/>
	<ellipse cx="150.5" cy="69.4573" rx="2.5" ry="2.49292" fill="#D02A2B"/>
	<ellipse cx="150.5" cy="83.4189" rx="2.5" ry="2.49316" fill="#D02A2B"/>
	<ellipse cx="150.5" cy="97.3806" rx="2.5" ry="2.49341" fill="#D02A2B"/>
	<ellipse cx="162.5" cy="69.4573" rx="2.5" ry="2.49292" fill="#D02A2B"/>
	<ellipse cx="162.5" cy="83.4189" rx="2.5" ry="2.49316" fill="#D02A2B"/>
	<ellipse cx="162.5" cy="97.3806" rx="2.5" ry="2.49341" fill="#D02A2B"/>
	<ellipse cx="174.5" cy="69.4573" rx="2.5" ry="2.49292" fill="#D02A2B"/>
	<ellipse cx="174.5" cy="83.4189" rx="2.5" ry="2.49316" fill="#D02A2B"/>
	<ellipse cx="174.5" cy="97.3806" rx="2.5" ry="2.49341" fill="#D02A2B"/>
	<ellipse cx="187.5" cy="56.4929" rx="2.5" ry="2.49292" fill="#D02A2B"/>
	<ellipse cx="199.5" cy="56.4929" rx="2.5" ry="2.49292" fill="#D02A2B"/>
	<ellipse cx="211.5" cy="56.4929" rx="2.5" ry="2.49292" fill="#D02A2B"/>
	<ellipse cx="187.5" cy="69.4573" rx="2.5" ry="2.49292" fill="#D02A2B"/>
	<ellipse cx="187.5" cy="83.4189" rx="2.5" ry="2.49316" fill="#D02A2B"/>
	<ellipse cx="187.5" cy="97.3806" rx="2.5" ry="2.49341" fill="#D02A2B"/>
	<ellipse cx="199.5" cy="69.4573" rx="2.5" ry="2.49292" fill="#D02A2B"/>
	<ellipse cx="199.5" cy="83.4189" rx="2.5" ry="2.49316" fill="#D02A2B"/>
	<ellipse cx="199.5" cy="97.3806" rx="2.5" ry="2.49341" fill="#D02A2B"/>
	<ellipse cx="211.5" cy="69.4573" rx="2.5" ry="2.49292" fill="#D02A2B"/>
	<ellipse cx="211.5" cy="83.4189" rx="2.5" ry="2.49316" fill="#D02A2B"/>
	<ellipse cx="211.5" cy="97.3806" rx="2.5" ry="2.49341" fill="#D02A2B"/>
</svg>
